<svg width="472" height="421" viewBox="0 0 472 421" fill="none" xmlns="http://www.w3.org/2000/svg">
<path d="M345.211 50.1694C345.211 50.1694 336.491 33.5271 322.789 42.932C309.086 52.3368 314.829 65.3542 308.326 67.5341C301.824 69.714 296.754 61.7417 290.239 65.3542C283.724 68.9666 285.892 74.759 281.519 74.759C277.147 74.759 269.224 71.1466 265.599 72.5916C261.975 74.0366 256.88 81.9964 256.88 81.9964C256.88 81.9964 219.995 84.1639 224.33 88.5113C228.665 92.8588 332.119 88.5113 332.119 88.5113C332.119 88.5113 308.251 94.2913 321.269 97.2311C334.286 100.171 392.173 97.2311 392.173 97.2311C392.173 97.2311 400.893 86.3812 396.508 79.1438C392.123 71.9064 375.531 79.8663 371.906 75.5314C368.281 71.1964 377.698 68.294 369.738 59.6116C361.778 50.9292 352.436 53.0593 345.211 50.1694Z" fill="white" stroke="#434A5B" stroke-linecap="round" stroke-linejoin="round"/>
<g style="mix-blend-mode:multiply" opacity="0.51">
<path d="M397.741 84.712C397.648 84.2559 397.648 83.7855 397.741 83.3293C397.687 81.8395 397.258 80.3872 396.495 79.1065C392.16 71.8691 375.518 79.829 371.893 75.494C368.268 71.159 377.686 68.2566 369.726 59.5742C364.307 53.6573 358.228 52.7853 352.61 51.9133C351.442 52.404 350.327 53.0134 349.284 53.732C335.582 63.1369 341.324 76.1542 334.809 78.3217C328.294 80.4892 323.237 72.5418 316.722 76.1542C310.207 79.7667 312.387 85.5591 308.002 85.5591C303.617 85.5591 295.707 81.9466 292.095 83.3916C289.89 84.276 287.112 87.5771 285.343 90.0186C309.709 89.4456 332.069 88.5114 332.069 88.5114C332.069 88.5114 308.202 94.2913 321.219 97.2311C334.236 100.171 392.123 97.2311 392.123 97.2311C392.123 97.2311 397.255 90.9031 397.741 84.712Z" fill="#41E1BC"/>
</g>
<path d="M112.692 253.9C112.692 253.9 107.324 243.611 98.8156 249.428C90.3076 255.245 93.8329 263.305 89.8592 264.65C85.8855 265.996 82.6965 261.063 78.6481 263.305C74.5996 265.547 75.9574 269.122 73.2792 269.122C70.601 269.122 65.6681 266.892 63.4259 267.777C61.1837 268.661 58.057 273.607 58.057 273.607C58.057 273.607 35.2487 274.94 37.9393 277.692C40.63 280.445 104.633 277.692 104.633 277.692C104.633 277.692 89.8592 281.268 97.9187 283.061C105.978 284.855 141.791 283.061 141.791 283.061C141.791 283.061 147.16 276.347 144.482 271.85C141.804 267.353 131.49 272.299 129.26 269.608C127.03 266.917 132.835 265.136 127.915 259.767C122.994 254.398 117.164 255.694 112.692 253.9Z" fill="white" stroke="#434A5B" stroke-linecap="round" stroke-linejoin="round"/>
<g style="mix-blend-mode:multiply" opacity="0.51">
<path d="M141.791 282.999C141.791 282.999 147.16 276.285 144.482 271.788C141.804 267.291 131.49 272.236 129.26 269.546C127.03 266.855 132.835 265.074 127.915 259.705C123.181 254.535 117.625 255.569 113.228 254.062C107.324 260.153 109.952 267.54 106.29 268.861C102.266 270.33 99.127 264.962 95.0786 267.403C91.0301 269.845 92.3879 273.731 89.7097 273.731C87.0315 273.731 82.0986 271.302 79.8564 272.274C77.6142 273.245 74.7865 278.091 74.5124 278.564C90.046 278.216 104.608 277.605 104.608 277.605C104.608 277.605 89.8343 281.18 97.8938 282.974C100.152 283.374 102.439 283.594 104.733 283.634C114.113 283.31 121.038 282.999 121.038 282.999C121.038 282.999 119.967 283.273 118.547 283.721C130.107 283.584 141.791 282.999 141.791 282.999Z" fill="#41E1BC"/>
</g>
<path d="M172.485 32.1693C172.485 32.1693 167.116 21.88 158.608 27.6973C150.1 33.5147 153.625 41.5742 149.652 42.9195C145.678 44.2649 142.489 39.332 138.441 41.5742C134.392 43.8164 135.75 47.3915 133.072 47.3915C130.394 47.3915 125.461 45.1493 123.218 46.0462C120.976 46.9431 117.85 51.876 117.85 51.876C117.85 51.876 95.0163 53.2088 97.7069 55.8995C100.398 58.5902 164.401 55.8995 164.401 55.8995C164.401 55.8995 149.627 59.4746 157.686 61.2684C165.746 63.0621 201.559 61.2684 201.559 61.2684C201.559 61.2684 206.928 54.5542 204.25 50.0573C201.572 45.5604 191.257 50.5057 189.028 47.815C186.798 45.1244 192.603 43.3431 187.682 37.9742C182.762 32.6053 176.957 33.9631 172.485 32.1693Z" fill="white" stroke="#434A5B" stroke-linecap="round" stroke-linejoin="round"/>
<g style="mix-blend-mode:multiply" opacity="0.51">
<path d="M201.584 61.2684C201.584 61.2684 206.953 54.5542 204.275 50.0573C201.596 45.5604 191.282 50.5058 189.052 47.8151C186.823 45.1244 192.628 43.3431 187.707 37.9742C183.646 33.5396 178.987 33.6766 174.951 32.8545C166.805 38.6594 170.243 46.557 166.232 47.8774C162.221 49.1978 159.069 44.2898 155.021 46.532C150.972 48.7743 152.342 52.3494 149.652 52.3494C146.961 52.3494 142.041 50.1071 139.798 51.004C137.556 51.9009 134.43 56.8338 134.43 56.8338C149.913 56.485 164.413 55.8746 164.413 55.8746C164.413 55.8746 149.639 59.4497 157.699 61.2435C158.439 61.4013 159.187 61.5136 159.941 61.5798C171.65 61.2559 181.03 60.8573 181.03 60.8573C181.03 60.8573 179.075 61.3307 176.982 62.0158C188.953 61.9037 201.584 61.2684 201.584 61.2684Z" fill="#41E1BC"/>
</g>
<path d="M389.021 87.44C389.021 87.44 383.652 77.1507 375.144 82.968C366.636 88.7853 370.224 96.8448 366.2 98.1902C362.177 99.5355 359.038 94.6026 354.989 96.8448C350.941 99.0871 352.311 102.662 349.62 102.662C346.93 102.662 342.009 100.42 339.767 101.317C337.525 102.214 334.398 107.134 334.398 107.134C334.398 107.134 311.565 108.479 314.256 111.17C316.946 113.861 380.949 111.17 380.949 111.17C380.949 111.17 366.188 114.745 374.235 116.539C382.282 118.333 418.108 116.539 418.108 116.539C418.108 116.539 423.477 109.825 420.798 105.328C418.12 100.831 407.818 105.776 405.576 103.086C403.334 100.395 409.151 98.6137 404.231 93.2324C399.31 87.851 393.506 89.2337 389.021 87.44Z" fill="white" stroke="#434A5B" stroke-linecap="round" stroke-linejoin="round"/>
<g style="mix-blend-mode:multiply" opacity="0.51">
<path d="M418.12 116.539C418.12 116.539 423.489 109.825 420.811 105.328C418.133 100.831 407.831 105.776 405.589 103.086C403.346 100.395 408.79 98.7134 404.63 93.7057C404.126 93.58 403.631 93.4219 403.147 93.2324C402.712 92.4535 402.208 91.7155 401.64 91.0275C397.978 88.6358 394.041 88.7853 390.665 87.9382C390.181 88.1776 389.715 88.4524 389.27 88.7604C380.762 94.5777 384.288 102.637 380.314 103.97C376.34 105.303 373.151 100.395 369.103 102.637C365.054 104.879 366.412 108.455 363.721 108.455C361.031 108.455 356.11 106.212 353.881 107.109C352.199 107.782 350.019 110.709 349.035 112.092C365.229 111.756 380.937 111.095 380.937 111.095C380.937 111.095 366.175 114.67 374.223 116.464C378.168 117.05 382.155 117.313 386.144 117.249L395.063 116.913C395.063 116.913 394.564 117.025 393.817 117.237C405.701 117.162 418.12 116.539 418.12 116.539Z" fill="#41E1BC"/>
</g>
<path d="M221.876 70.449V75.0455" stroke="white" stroke-linecap="round" stroke-linejoin="round"/>
<path d="M293.303 212.718L335.656 296.178C335.968 296.798 336.117 297.488 336.088 298.181C336.058 298.875 335.852 299.549 335.489 300.141C335.126 300.732 334.618 301.221 334.013 301.561C333.407 301.901 332.725 302.08 332.031 302.083H275.353C273.829 302.093 272.363 301.498 271.277 300.428C270.191 299.358 269.574 297.902 269.561 296.378V214.748L293.303 212.718Z" fill="#434A5B" stroke="#434A5B" stroke-linecap="round" stroke-linejoin="round"/>
<path d="M326.114 301.946L281.27 213.752L269.598 214.748V296.378C269.598 297.904 270.204 299.368 271.284 300.447C272.363 301.526 273.827 302.133 275.353 302.133H326.189C326.17 302.068 326.145 302.005 326.114 301.946Z" fill="white" stroke="black" stroke-miterlimit="10"/>
<path d="M181.043 212.718L138.69 296.178C138.378 296.798 138.229 297.488 138.259 298.181C138.288 298.875 138.494 299.549 138.857 300.141C139.22 300.732 139.728 301.221 140.333 301.561C140.939 301.901 141.621 302.08 142.315 302.083H199.018C200.538 302.086 201.997 301.488 203.078 300.419C204.158 299.35 204.772 297.897 204.785 296.378V214.748L181.043 212.718Z" fill="#434A5B" stroke="#434A5B" stroke-linecap="round" stroke-linejoin="round"/>
<path d="M148.219 301.946L193.064 213.752L204.723 214.748V296.378C204.723 297.904 204.117 299.368 203.038 300.447C201.958 301.526 200.494 302.133 198.968 302.133H148.144L148.219 301.946Z" fill="white" stroke="black" stroke-miterlimit="10"/>
<g style="mix-blend-mode:multiply">
<path d="M193.076 213.752L158.82 281.118C170.841 272.548 186.511 263.928 204.736 259.829V214.748L193.076 213.752Z" fill="#41E1BC"/>
</g>
<path d="M217.529 268.013L202.431 294.148H232.614L217.529 268.013Z" fill="#41E1BC" stroke="#434A5B" stroke-linecap="round" stroke-linejoin="round"/>
<path d="M257.042 268.013L241.956 294.148H272.139L257.042 268.013Z" fill="#41E1BC" stroke="#434A5B" stroke-linecap="round" stroke-linejoin="round"/>
<path d="M233.012 293.874H201.808V299.504H233.012V293.874Z" fill="#434A5B" stroke="#434A5B" stroke-linecap="round" stroke-linejoin="round"/>
<path d="M272.5 293.874H241.296V299.504H272.5V293.874Z" fill="#434A5B" stroke="#434A5B" stroke-linecap="round" stroke-linejoin="round"/>
<path d="M242.579 3.40646C241.896 2.62195 241.053 1.99299 240.107 1.56199C239.16 1.13099 238.132 0.907959 237.092 0.907959C236.052 0.907959 235.024 1.13099 234.077 1.56199C233.131 1.99299 232.288 2.62195 231.605 3.40646C217.242 19.9366 179.523 67.5464 179.523 112.49V243.872L200.301 281.803H274.182L294.96 243.872V112.49C294.96 67.534 257.029 19.9117 242.579 3.40646Z" fill="white" stroke="black" stroke-miterlimit="10"/>
<path d="M236.774 6.13457C236.774 3.79269 230.147 17.7567 225.476 23.8606C225.551 23.3374 225.638 22.8267 225.713 22.3035C225.713 22.3035 197.947 57.7056 189.588 91.0275C188.712 94.4556 188.018 97.9276 187.508 101.429C186.885 105.614 186.113 199.24 185.702 255.22L200.301 281.803H236.363C235.641 279.075 237.609 266.506 236.774 263.218V6.13457Z" fill="#41E1BC"/>
<path d="M192.814 241.593C193.84 241.593 194.671 240.762 194.671 239.737C194.671 238.712 193.84 237.881 192.814 237.881C191.789 237.881 190.958 238.712 190.958 239.737C190.958 240.762 191.789 241.593 192.814 241.593Z" stroke="#434A5B" stroke-linecap="round" stroke-linejoin="round"/>
<path d="M202.929 241.593C203.954 241.593 204.785 240.762 204.785 239.737C204.785 238.712 203.954 237.881 202.929 237.881C201.904 237.881 201.073 238.712 201.073 239.737C201.073 240.762 201.904 241.593 202.929 241.593Z" stroke="#434A5B" stroke-linecap="round" stroke-linejoin="round"/>
<path d="M213.044 241.593C214.069 241.593 214.9 240.762 214.9 239.737C214.9 238.712 214.069 237.881 213.044 237.881C212.019 237.881 211.188 238.712 211.188 239.737C211.188 240.762 212.019 241.593 213.044 241.593Z" stroke="#434A5B" stroke-linecap="round" stroke-linejoin="round"/>
<path d="M223.159 241.593C224.184 241.593 225.015 240.762 225.015 239.737C225.015 238.712 224.184 237.881 223.159 237.881C222.134 237.881 221.303 238.712 221.303 239.737C221.303 240.762 222.134 241.593 223.159 241.593Z" stroke="#434A5B" stroke-linecap="round" stroke-linejoin="round"/>
<path d="M251.013 241.593C252.038 241.593 252.869 240.762 252.869 239.737C252.869 238.712 252.038 237.881 251.013 237.881C249.987 237.881 249.156 238.712 249.156 239.737C249.156 240.762 249.987 241.593 251.013 241.593Z" stroke="#434A5B" stroke-linecap="round" stroke-linejoin="round"/>
<path d="M261.127 241.593C262.153 241.593 262.983 240.762 262.983 239.737C262.983 238.712 262.153 237.881 261.127 237.881C260.102 237.881 259.271 238.712 259.271 239.737C259.271 240.762 260.102 241.593 261.127 241.593Z" stroke="#434A5B" stroke-linecap="round" stroke-linejoin="round"/>
<path d="M271.242 241.593C272.267 241.593 273.098 240.762 273.098 239.737C273.098 238.712 272.267 237.881 271.242 237.881C270.217 237.881 269.386 238.712 269.386 239.737C269.386 240.762 270.217 241.593 271.242 241.593Z" stroke="#434A5B" stroke-linecap="round" stroke-linejoin="round"/>
<path d="M281.357 241.593C282.382 241.593 283.213 240.762 283.213 239.737C283.213 238.712 282.382 237.881 281.357 237.881C280.332 237.881 279.501 238.712 279.501 239.737C279.501 240.762 280.332 241.593 281.357 241.593Z" stroke="#434A5B" stroke-linecap="round" stroke-linejoin="round"/>
<path d="M186.287 119.329V242.527" stroke="#434A5B" stroke-linecap="round" stroke-linejoin="round"/>
<path d="M197.473 69.4026C192.03 81.4857 187.869 94.4781 186.648 107.408" stroke="#434A5B" stroke-linecap="round" stroke-linejoin="round"/>
<path d="M242.853 11.9145C242.273 11.1409 241.521 10.5131 240.656 10.0806C239.791 9.64822 238.838 9.4231 237.871 9.4231C236.904 9.4231 235.95 9.64822 235.085 10.0806C234.22 10.5131 233.468 11.1409 232.888 11.9145C221.557 26.1406 211.636 41.4347 203.266 57.581" stroke="#434A5B" stroke-linecap="round" stroke-linejoin="round"/>
<path d="M262.174 130.989C257.765 130.989 253.538 129.238 250.419 126.122C247.301 123.007 245.547 118.78 245.544 114.372C245.544 109.961 247.296 105.731 250.415 102.612C253.533 99.4938 257.763 97.7417 262.174 97.7417C266.582 97.745 270.809 99.4985 273.925 102.617C277.041 105.735 278.791 109.963 278.791 114.372C278.791 118.779 277.04 123.005 273.924 126.122C270.808 129.238 266.581 130.989 262.174 130.989Z" fill="#434A5B" stroke="#434A5B" stroke-linecap="round" stroke-linejoin="round"/>
<path d="M262.174 131.948C258.689 131.951 255.282 130.919 252.383 128.985C249.485 127.05 247.225 124.3 245.891 121.081C244.556 117.862 244.206 114.319 244.885 110.901C245.565 107.483 247.242 104.343 249.706 101.879C252.171 99.4152 255.31 97.7374 258.728 97.0582C262.146 96.3789 265.689 96.7288 268.908 98.0635C272.127 99.3982 274.877 101.658 276.812 104.556C278.746 107.455 279.778 110.862 279.775 114.347C279.769 119.013 277.912 123.486 274.613 126.785C271.313 130.085 266.84 131.942 262.174 131.948ZM262.174 98.701C259.079 98.701 256.054 99.6186 253.482 101.338C250.909 103.057 248.903 105.5 247.719 108.359C246.535 111.218 246.225 114.364 246.829 117.399C247.432 120.434 248.923 123.222 251.111 125.41C253.299 127.598 256.087 129.088 259.122 129.692C262.156 130.295 265.302 129.986 268.161 128.801C271.02 127.617 273.464 125.612 275.183 123.039C276.902 120.466 277.82 117.441 277.82 114.347C277.81 110.203 276.157 106.231 273.225 103.303C270.292 100.375 266.318 98.7292 262.174 98.7259V98.701Z" fill="white" stroke="#434A5B" stroke-width="0.75" stroke-miterlimit="10"/>
<path fill-rule="evenodd" clip-rule="evenodd" d="M271.753 113.961C271.655 111.668 270.68 109.5 269.03 107.905C267.38 106.31 265.181 105.409 262.886 105.389C260.591 105.368 258.376 106.229 256.697 107.794C255.019 109.359 254.005 111.508 253.865 113.799C253.865 113.936 253.865 114.06 253.865 114.185C253.854 115.802 254.285 117.391 255.111 118.781L253.491 123.54L258.474 121.97C259.804 122.696 261.294 123.077 262.809 123.079C263.98 123.082 265.141 122.855 266.224 122.409C267.308 121.964 268.293 121.31 269.123 120.484C269.954 119.658 270.613 118.677 271.065 117.596C271.516 116.515 271.75 115.356 271.753 114.185V113.961ZM262.809 121.659C261.334 121.662 259.89 121.229 258.661 120.413L255.771 121.335L256.705 118.557C255.777 117.283 255.276 115.748 255.273 114.172C255.26 113.932 255.26 113.69 255.273 113.45C255.293 111.468 256.099 109.574 257.515 108.187C258.93 106.799 260.839 106.031 262.822 106.05C264.804 106.07 266.697 106.877 268.085 108.292C269.472 109.708 270.241 111.617 270.221 113.599C270.221 113.786 270.221 113.985 270.221 114.172C270.224 116.146 269.447 118.041 268.058 119.443C266.67 120.846 264.783 121.642 262.809 121.659Z" fill="white"/>
<path fill-rule="evenodd" clip-rule="evenodd" d="M266.907 115.979C266.683 115.879 265.662 115.343 265.413 115.281C265.163 115.219 265.064 115.169 264.914 115.381C264.765 115.592 264.341 116.091 264.217 116.24C264.154 116.302 264.069 116.337 263.98 116.337C263.891 116.337 263.806 116.302 263.743 116.24C263.094 115.987 262.495 115.62 261.975 115.156C261.484 114.721 261.064 114.213 260.729 113.649C260.604 113.437 260.729 113.325 260.828 113.213C260.928 113.101 261.04 112.952 261.152 112.827L261.24 112.727L261.377 112.466C261.41 112.407 261.428 112.34 261.428 112.273C261.428 112.205 261.41 112.138 261.377 112.08C261.377 111.98 260.891 110.834 260.704 110.46C260.517 110.086 260.343 110.099 260.206 110.099H259.795C259.683 110.1 259.573 110.126 259.472 110.173C259.371 110.22 259.282 110.288 259.209 110.373C258.958 110.604 258.76 110.885 258.626 111.199C258.493 111.512 258.429 111.851 258.437 112.192C258.443 112.44 258.48 112.687 258.549 112.927C258.717 113.473 258.983 113.983 259.334 114.434C260.244 115.861 261.54 117.001 263.071 117.722C265.3 118.594 265.3 118.308 265.699 118.271C266.006 118.214 266.297 118.093 266.552 117.914C266.808 117.736 267.023 117.505 267.181 117.237C267.325 116.912 267.373 116.553 267.318 116.203C267.195 116.105 267.056 116.029 266.907 115.979Z" fill="white"/>
<path d="M238.718 167.537C236.534 167.537 234.371 167.107 232.354 166.271C230.336 165.435 228.503 164.211 226.959 162.666C225.414 161.122 224.189 159.289 223.354 157.271C222.518 155.254 222.088 153.091 222.088 150.907C222.091 146.499 223.845 142.272 226.963 139.156C230.081 136.04 234.309 134.29 238.718 134.29C243.125 134.29 247.352 136.041 250.468 139.157C253.584 142.273 255.335 146.5 255.335 150.907C255.335 155.316 253.585 159.544 250.469 162.662C247.353 165.78 243.126 167.534 238.718 167.537Z" fill="#434A5B" stroke="#434A5B" stroke-linecap="round" stroke-linejoin="round"/>
<path d="M238.718 168.509C235.236 168.509 231.833 167.476 228.939 165.542C226.044 163.608 223.788 160.859 222.456 157.643C221.124 154.427 220.775 150.888 221.454 147.473C222.134 144.059 223.81 140.923 226.272 138.461C228.733 136 231.869 134.323 235.284 133.644C238.698 132.965 242.237 133.314 245.453 134.646C248.67 135.978 251.419 138.234 253.353 141.129C255.287 144.023 256.319 147.426 256.319 150.907C256.313 155.574 254.456 160.047 251.157 163.346C247.857 166.646 243.384 168.502 238.718 168.509ZM238.718 135.262C234.568 135.262 230.589 136.91 227.654 139.844C224.72 142.778 223.072 146.758 223.072 150.907C223.072 155.057 224.72 159.036 227.654 161.971C230.589 164.905 234.568 166.553 238.718 166.553C242.867 166.553 246.847 164.905 249.781 161.971C252.715 159.036 254.363 155.057 254.363 150.907C254.363 146.758 252.715 142.778 249.781 139.844C246.847 136.91 242.867 135.262 238.718 135.262Z" fill="white" stroke="#434A5B" stroke-width="0.75" stroke-miterlimit="10"/>
<path d="M248.646 145.887C248.53 145.446 248.3 145.043 247.978 144.719C247.656 144.396 247.255 144.163 246.815 144.044C241.432 143.462 236.003 143.462 230.621 144.044C230.18 144.163 229.779 144.396 229.457 144.719C229.136 145.043 228.906 145.446 228.79 145.887C228.208 149.209 228.208 152.606 228.79 155.927C228.906 156.369 229.136 156.772 229.457 157.095C229.779 157.419 230.18 157.652 230.621 157.771C236.003 158.352 241.432 158.352 246.815 157.771C247.255 157.652 247.656 157.419 247.978 157.095C248.3 156.772 248.53 156.369 248.646 155.927C249.227 152.606 249.227 149.209 248.646 145.887Z" fill="white"/>
<path d="M236.6 153.997V147.83L242.019 150.907L236.6 153.997Z" fill="#434A5B"/>
<path d="M238.718 92.2733C234.309 92.2733 230.081 90.5229 226.963 87.4069C223.845 84.2909 222.091 80.0643 222.088 75.6559C222.088 71.2454 223.84 67.0156 226.959 63.8969C230.077 60.7782 234.307 59.0261 238.718 59.0261C243.126 59.0294 247.353 60.7829 250.469 63.9013C253.585 67.0196 255.335 71.2476 255.335 75.6559C255.335 80.0631 253.584 84.2898 250.468 87.4061C247.352 90.5225 243.125 92.2733 238.718 92.2733Z" fill="#434A5B" stroke="#434A5B" stroke-linecap="round" stroke-linejoin="round"/>
<path d="M238.718 93.2573C235.236 93.2573 231.833 92.225 228.939 90.2909C226.044 88.3569 223.788 85.6079 222.456 82.3917C221.124 79.1754 220.775 75.6364 221.454 72.222C222.134 68.8077 223.81 65.6714 226.272 63.2098C228.733 60.7482 231.869 59.0718 235.284 58.3927C238.698 57.7135 242.237 58.0621 245.453 59.3943C248.67 60.7265 251.419 62.9825 253.353 65.877C255.287 68.7716 256.319 72.1746 256.319 75.6559C256.313 80.322 254.456 84.7952 251.157 88.0947C247.857 91.3942 243.384 93.2507 238.718 93.2573ZM238.718 60.0102C235.623 60.0102 232.598 60.9278 230.025 62.6469C227.452 64.3661 225.447 66.8096 224.263 69.6685C223.079 72.5274 222.769 75.6732 223.373 78.7082C223.976 81.7432 225.466 84.531 227.654 86.7191C229.843 88.9072 232.63 90.3973 235.665 91.001C238.7 91.6047 241.846 91.2948 244.705 90.1106C247.564 88.9264 250.007 86.9211 251.727 84.3482C253.446 81.7752 254.363 78.7503 254.363 75.6559C254.36 71.5074 252.711 67.5298 249.777 64.5963C246.844 61.6629 242.866 60.0135 238.718 60.0102Z" fill="white" stroke="#434A5B" stroke-width="0.75" stroke-miterlimit="10"/>
<path d="M236.077 85.7085H240.125V75.5687H242.953L243.252 72.1804H240.125V70.2496C240.125 69.44 240.287 69.1285 241.06 69.1285H243.252V65.6033H240.449C237.435 65.6033 236.077 66.9361 236.077 69.4649V72.1555H233.972V75.5811H236.077V85.7085Z" fill="white"/>
<path d="M214.95 208.532C210.542 208.532 206.314 206.782 203.196 203.666C200.077 200.55 198.324 196.323 198.32 191.915C198.32 187.504 200.072 183.275 203.191 180.156C206.31 177.037 210.54 175.285 214.95 175.285C219.358 175.288 223.585 177.042 226.701 180.16C229.817 183.279 231.567 187.507 231.567 191.915C231.567 196.322 229.817 200.549 226.7 203.665C223.584 206.782 219.357 208.532 214.95 208.532Z" fill="#434A5B" stroke="#434A5B" stroke-linecap="round" stroke-linejoin="round"/>
<path d="M214.95 209.516C211.465 209.519 208.058 208.488 205.16 206.553C202.261 204.619 200.002 201.868 198.667 198.649C197.332 195.43 196.982 191.887 197.662 188.469C198.341 185.051 200.019 181.912 202.483 179.448C204.947 176.984 208.087 175.306 211.504 174.627C214.922 173.947 218.465 174.297 221.684 175.632C224.903 176.967 227.654 179.226 229.588 182.125C231.523 185.023 232.554 188.43 232.552 191.915C232.545 196.581 230.688 201.054 227.389 204.354C224.089 207.653 219.616 209.51 214.95 209.516ZM214.95 176.269C211.856 176.269 208.831 177.187 206.258 178.906C203.685 180.625 201.68 183.069 200.495 185.928C199.311 188.787 199.001 191.932 199.605 194.967C200.209 198.002 201.699 200.79 203.887 202.978C206.075 205.166 208.863 206.656 211.898 207.26C214.933 207.864 218.079 207.554 220.937 206.37C223.796 205.186 226.24 203.18 227.959 200.607C229.678 198.034 230.596 195.009 230.596 191.915C230.593 187.767 228.943 183.789 226.01 180.855C223.076 177.922 219.099 176.273 214.95 176.269Z" fill="white" stroke="#434A5B" stroke-width="0.75" stroke-miterlimit="10"/>
<path d="M214.95 184.441C217.442 184.441 217.666 184.441 218.687 184.441C219.266 184.446 219.839 184.551 220.381 184.752C220.773 184.906 221.13 185.14 221.428 185.438C221.725 185.736 221.959 186.092 222.113 186.484C222.314 187.026 222.42 187.599 222.424 188.178C222.424 189.137 222.424 189.424 222.424 191.915C222.424 194.406 222.424 194.631 222.424 195.652C222.42 196.231 222.314 196.804 222.113 197.346C221.959 197.738 221.725 198.094 221.428 198.392C221.13 198.69 220.773 198.924 220.381 199.078C219.839 199.279 219.266 199.384 218.687 199.389C217.728 199.389 217.442 199.389 214.95 199.389C212.459 199.389 212.222 199.389 211.213 199.389C210.635 199.384 210.061 199.279 209.519 199.078C209.123 198.932 208.765 198.697 208.473 198.392C208.169 198.099 207.935 197.742 207.788 197.346C207.586 196.804 207.481 196.231 207.476 195.652C207.476 194.693 207.476 194.406 207.476 191.915C207.476 189.424 207.476 189.187 207.476 188.178C207.481 187.599 207.586 187.026 207.788 186.484C207.959 186.11 208.21 185.779 208.522 185.512C208.815 185.207 209.172 184.973 209.569 184.827C210.111 184.626 210.684 184.52 211.263 184.516C212.222 184.516 212.509 184.516 215 184.516M215 182.871C212.509 182.871 212.21 182.871 211.263 182.871C210.506 182.89 209.757 183.033 209.046 183.295C208.444 183.535 207.897 183.896 207.439 184.354C206.981 184.812 206.62 185.359 206.38 185.961C206.118 186.672 205.975 187.421 205.956 188.178C205.956 189.15 205.956 189.424 205.956 191.915C205.956 194.406 205.956 194.693 205.956 195.652C205.975 196.409 206.118 197.158 206.38 197.869C206.615 198.474 206.974 199.023 207.433 199.482C207.892 199.941 208.441 200.3 209.046 200.535C209.757 200.797 210.506 200.94 211.263 200.959C212.235 200.959 212.509 200.959 215 200.959C217.491 200.959 217.778 200.959 218.737 200.959C219.494 200.94 220.243 200.797 220.954 200.535C221.562 200.305 222.114 199.948 222.574 199.489C223.034 199.029 223.39 198.477 223.62 197.869C223.882 197.158 224.025 196.409 224.044 195.652C224.044 194.68 224.044 194.406 224.044 191.915C224.044 189.424 224.044 189.125 224.044 188.178C224.025 187.421 223.882 186.672 223.62 185.961C223.39 185.354 223.037 184.801 222.582 184.338C222.128 183.875 221.582 183.511 220.979 183.27C220.268 183.008 219.519 182.865 218.762 182.846C217.79 182.846 217.516 182.846 215.025 182.846" fill="white"/>
<path d="M214.95 187.231C214.023 187.229 213.117 187.501 212.345 188.014C211.573 188.528 210.971 189.258 210.614 190.114C210.258 190.97 210.163 191.912 210.342 192.821C210.522 193.73 210.967 194.566 211.621 195.222C212.276 195.879 213.11 196.326 214.019 196.508C214.928 196.69 215.871 196.597 216.727 196.243C217.584 195.889 218.316 195.289 218.831 194.518C219.346 193.748 219.621 192.842 219.621 191.915C219.621 190.675 219.13 189.485 218.254 188.607C217.378 187.729 216.19 187.235 214.95 187.231ZM214.95 194.942C214.349 194.942 213.76 194.763 213.26 194.429C212.76 194.094 212.371 193.619 212.141 193.063C211.911 192.507 211.852 191.895 211.97 191.305C212.088 190.715 212.379 190.173 212.805 189.749C213.232 189.324 213.774 189.036 214.365 188.92C214.955 188.804 215.567 188.866 216.122 189.098C216.677 189.33 217.151 189.721 217.483 190.223C217.816 190.724 217.992 191.313 217.99 191.915C217.99 192.314 217.911 192.708 217.758 193.076C217.605 193.444 217.381 193.779 217.099 194.06C216.816 194.341 216.481 194.564 216.112 194.715C215.744 194.867 215.349 194.944 214.95 194.942Z" fill="white"/>
<path d="M220.905 187.044C220.905 187.261 220.84 187.473 220.72 187.653C220.599 187.834 220.428 187.974 220.228 188.057C220.028 188.14 219.807 188.162 219.594 188.12C219.382 188.077 219.186 187.973 219.033 187.82C218.88 187.666 218.775 187.471 218.733 187.258C218.691 187.046 218.713 186.825 218.796 186.625C218.879 186.425 219.019 186.253 219.199 186.133C219.38 186.013 219.592 185.948 219.808 185.948C220.099 185.948 220.378 186.064 220.583 186.269C220.789 186.475 220.905 186.754 220.905 187.044Z" fill="white"/>
<path d="M213.704 130.989C209.296 130.989 205.068 129.238 201.95 126.122C198.832 123.007 197.078 118.78 197.075 114.372C197.075 109.961 198.827 105.731 201.945 102.612C205.064 99.4938 209.294 97.7417 213.704 97.7417C218.113 97.745 222.339 99.4985 225.455 102.617C228.571 105.735 230.322 109.963 230.322 114.372C230.322 118.779 228.571 123.005 225.455 126.122C222.338 129.238 218.112 130.989 213.704 130.989Z" fill="#434A5B" stroke="#434A5B" stroke-linecap="round" stroke-linejoin="round"/>
<path d="M213.704 131.948C210.22 131.951 206.813 130.919 203.914 128.985C201.016 127.05 198.756 124.3 197.421 121.081C196.087 117.862 195.737 114.319 196.416 110.901C197.095 107.483 198.773 104.343 201.237 101.879C203.701 99.4152 206.841 97.7374 210.259 97.0582C213.677 96.3789 217.219 96.7288 220.438 98.0635C223.657 99.3982 226.408 101.658 228.343 104.556C230.277 107.455 231.308 110.862 231.306 114.347C231.303 119.014 229.447 123.489 226.147 126.789C222.847 130.089 218.372 131.945 213.704 131.948ZM213.704 98.701C210.61 98.701 207.585 99.6186 205.012 101.338C202.439 103.057 200.434 105.5 199.25 108.359C198.066 111.218 197.756 114.364 198.359 117.399C198.963 120.434 200.453 123.222 202.641 125.41C204.829 127.598 207.617 129.088 210.652 129.692C213.687 130.295 216.833 129.986 219.692 128.801C222.551 127.617 224.994 125.612 226.713 123.039C228.433 120.466 229.35 117.441 229.35 114.347C229.34 110.203 227.688 106.231 224.755 103.303C221.823 100.375 217.849 98.7292 213.704 98.7259V98.701Z" fill="white" stroke="#434A5B" stroke-width="0.75" stroke-miterlimit="10"/>
<path d="M204.848 119.927C206.441 120.95 208.285 121.515 210.178 121.561C212.071 121.606 213.94 121.131 215.581 120.185C217.222 119.24 218.571 117.862 219.481 116.202C220.392 114.542 220.828 112.663 220.743 110.772C221.456 110.253 222.071 109.612 222.561 108.878C221.897 109.176 221.191 109.369 220.469 109.451C221.228 109.001 221.795 108.287 222.063 107.446C221.34 107.855 220.552 108.137 219.734 108.28C219.19 107.679 218.461 107.277 217.663 107.137C216.865 106.998 216.043 107.129 215.328 107.509C214.612 107.89 214.045 108.498 213.714 109.238C213.384 109.978 213.311 110.807 213.505 111.594C212.062 111.521 210.651 111.144 209.364 110.49C208.076 109.835 206.94 108.917 206.031 107.794C205.564 108.595 205.42 109.543 205.628 110.446C205.837 111.349 206.382 112.138 207.152 112.653C206.575 112.631 206.012 112.473 205.508 112.192C205.497 113.039 205.782 113.864 206.314 114.523C206.846 115.183 207.592 115.636 208.423 115.804C207.887 115.95 207.324 115.971 206.779 115.866C207.018 116.582 207.474 117.206 208.083 117.653C208.692 118.099 209.424 118.345 210.179 118.358C208.679 119.565 206.762 120.129 204.848 119.927Z" fill="white"/>
<path d="M260.492 208.532C256.084 208.532 251.856 206.782 248.738 203.666C245.619 200.55 243.866 196.323 243.862 191.915C243.862 187.504 245.614 183.275 248.733 180.156C251.852 177.037 256.082 175.285 260.492 175.285C264.9 175.288 269.127 177.042 272.243 180.16C275.359 183.279 277.109 187.507 277.109 191.915C277.109 196.322 275.359 200.549 272.242 203.665C269.126 206.782 264.899 208.532 260.492 208.532Z" fill="#434A5B" stroke="#434A5B" stroke-linecap="round" stroke-linejoin="round"/>
<path d="M260.492 209.516C257.007 209.519 253.6 208.488 250.702 206.553C247.803 204.619 245.544 201.868 244.209 198.649C242.874 195.43 242.524 191.887 243.204 188.469C243.883 185.051 245.561 181.912 248.025 179.448C250.489 176.984 253.629 175.306 257.046 174.627C260.464 173.947 264.007 174.297 267.226 175.632C270.445 176.967 273.196 179.226 275.13 182.125C277.065 185.023 278.096 188.43 278.094 191.915C278.087 196.581 276.23 201.054 272.931 204.354C269.631 207.653 265.158 209.51 260.492 209.516ZM260.492 176.269C257.398 176.269 254.373 177.187 251.8 178.906C249.227 180.625 247.222 183.069 246.037 185.928C244.853 188.787 244.543 191.932 245.147 194.967C245.751 198.002 247.241 200.79 249.429 202.978C251.617 205.166 254.405 206.656 257.44 207.26C260.475 207.864 263.621 207.554 266.479 206.37C269.338 205.186 271.782 203.18 273.501 200.607C275.22 198.034 276.138 195.009 276.138 191.915C276.135 187.767 274.485 183.789 271.552 180.855C268.618 177.922 264.641 176.273 260.492 176.269Z" fill="white" stroke="#434A5B" stroke-width="0.75" stroke-miterlimit="10"/>
<path d="M255.92 187.817H252.482V198.928H255.92V187.817Z" fill="white"/>
<path d="M254.189 186.359C254.705 186.319 255.187 186.086 255.538 185.706C255.889 185.326 256.084 184.828 256.084 184.31C256.084 183.793 255.889 183.294 255.538 182.914C255.187 182.535 254.705 182.301 254.189 182.261C253.673 182.301 253.191 182.535 252.84 182.914C252.489 183.294 252.294 183.793 252.294 184.31C252.294 184.828 252.489 185.326 252.84 185.706C253.191 186.086 253.673 186.319 254.189 186.359Z" fill="white"/>
<path d="M261.426 193.098C261.426 191.529 262.149 190.607 263.519 190.607C264.889 190.607 265.4 191.504 265.4 193.098V198.928H268.826V191.89C268.826 188.913 267.132 187.468 264.777 187.468C264.107 187.46 263.447 187.626 262.859 187.949C262.272 188.272 261.779 188.742 261.426 189.312V187.817H258.125V198.928H261.426V193.098Z" fill="white"/>
<path d="M237.248 304.885C236.587 304.885 235.953 304.623 235.486 304.156C235.019 303.689 234.756 303.055 234.756 302.394L232.19 215.097C232.189 214.429 232.319 213.768 232.574 213.15C232.829 212.533 233.203 211.972 233.675 211.5C234.148 211.027 234.708 210.653 235.326 210.398C235.943 210.143 236.605 210.013 237.273 210.015C237.94 210.015 238.6 210.146 239.216 210.402C239.832 210.657 240.391 211.032 240.862 211.504C241.333 211.976 241.706 212.536 241.96 213.153C242.214 213.77 242.344 214.43 242.343 215.097L239.752 302.394C239.752 302.722 239.687 303.047 239.561 303.35C239.435 303.654 239.25 303.929 239.018 304.16C238.785 304.392 238.509 304.575 238.205 304.699C237.901 304.824 237.576 304.887 237.248 304.885Z" fill="#434A5B" stroke="#434A5B" stroke-linecap="round" stroke-linejoin="round"/>
<path d="M237.335 349.506V355.323" stroke="#434A5B" stroke-linecap="round" stroke-linejoin="round"/>
<path d="M231.605 3.41903C222.342 14.0819 213.858 25.3969 206.218 37.2766H268.116C260.434 25.3716 251.9 14.0395 242.579 3.3692C241.893 2.58778 241.047 1.96264 240.098 1.53593C239.15 1.10921 238.121 0.890861 237.081 0.895583C236.041 0.900305 235.014 1.12799 234.069 1.5633C233.124 1.99861 232.284 2.63141 231.605 3.41903Z" fill="#434A5B" stroke="#434A5B" stroke-linecap="round" stroke-linejoin="round"/>
<path d="M221.938 35.5825C222.964 35.5825 223.794 34.7515 223.794 33.7264C223.794 32.7013 222.964 31.8704 221.938 31.8704C220.913 31.8704 220.082 32.7013 220.082 33.7264C220.082 34.7515 220.913 35.5825 221.938 35.5825Z" fill="white"/>
<path d="M233.909 33.7265C233.909 34.0966 233.799 34.4583 233.594 34.7658C233.388 35.0734 233.095 35.3129 232.753 35.4539C232.411 35.595 232.035 35.6312 231.672 35.5581C231.309 35.485 230.976 35.3058 230.715 35.0432C230.454 34.7807 230.277 34.4466 230.207 34.0833C230.136 33.72 230.175 33.3439 230.318 33.0027C230.462 32.6615 230.703 32.3706 231.012 32.1668C231.321 31.963 231.683 31.8555 232.053 31.858C232.298 31.8579 232.54 31.9064 232.766 32.0004C232.992 32.0945 233.198 32.2323 233.37 32.406C233.543 32.5796 233.679 32.7857 233.772 33.0124C233.864 33.239 233.911 33.4817 233.909 33.7265Z" fill="white"/>
<path d="M242.156 35.5825C243.181 35.5825 244.012 34.7515 244.012 33.7264C244.012 32.7013 243.181 31.8704 242.156 31.8704C241.131 31.8704 240.3 32.7013 240.3 33.7264C240.3 34.7515 241.131 35.5825 242.156 35.5825Z" fill="white"/>
<path d="M252.271 35.5825C253.296 35.5825 254.127 34.7515 254.127 33.7264C254.127 32.7013 253.296 31.8704 252.271 31.8704C251.246 31.8704 250.415 32.7013 250.415 33.7264C250.415 34.7515 251.246 35.5825 252.271 35.5825Z" fill="white"/>
<path d="M217.379 33.9507C217.379 33.9507 229.836 13.9078 234.906 7.7915" stroke="white" stroke-linecap="round" stroke-linejoin="round"/>
<path d="M274.182 281.803L294.96 243.872H179.523L200.301 281.803H274.182Z" fill="#434A5B" stroke="#434A5B" stroke-linecap="round" stroke-linejoin="round"/>
<path d="M203.465 261.237C203.39 261.269 203.321 261.317 203.264 261.376C203.207 261.434 203.162 261.504 203.132 261.581C203.102 261.657 203.087 261.739 203.089 261.821C203.09 261.903 203.108 261.984 203.141 262.059L205.01 266.431C205.058 266.543 205.138 266.638 205.24 266.704C205.342 266.77 205.461 266.806 205.583 266.805C205.665 266.824 205.75 266.824 205.832 266.805C205.907 266.773 205.975 266.726 206.033 266.667C206.09 266.608 206.135 266.538 206.165 266.461C206.195 266.385 206.21 266.303 206.208 266.221C206.206 266.139 206.189 266.058 206.156 265.983L204.287 261.611C204.258 261.532 204.214 261.46 204.156 261.398C204.099 261.337 204.031 261.287 203.954 261.252C203.878 261.218 203.795 261.198 203.711 261.196C203.627 261.193 203.543 261.207 203.465 261.237Z" fill="white"/>
<path d="M206.641 253.813C206.693 253.922 206.773 254.015 206.875 254.081C206.976 254.148 207.094 254.184 207.214 254.187C207.301 254.185 207.386 254.164 207.464 254.124C207.539 254.092 207.607 254.045 207.664 253.986C207.722 253.927 207.767 253.857 207.797 253.781C207.827 253.704 207.841 253.623 207.84 253.54C207.838 253.458 207.82 253.377 207.788 253.302L203.639 243.872H202.294L206.641 253.813Z" fill="white"/>
<path d="M266.148 264.526C266.234 264.543 266.323 264.543 266.409 264.526C266.526 264.529 266.642 264.498 266.742 264.436C266.842 264.374 266.921 264.284 266.97 264.177L276.487 243.822H275.104L265.824 263.691C265.789 263.767 265.769 263.849 265.767 263.932C265.764 264.016 265.778 264.099 265.809 264.177C265.839 264.255 265.884 264.326 265.943 264.386C266.001 264.446 266.071 264.493 266.148 264.526Z" fill="white"/>
<path d="M205.421 280.682C205.469 280.793 205.55 280.888 205.651 280.955C205.753 281.021 205.872 281.056 205.994 281.056C206.076 281.073 206.161 281.073 206.243 281.056C206.318 281.023 206.387 280.976 206.444 280.917C206.501 280.858 206.546 280.788 206.576 280.712C206.606 280.636 206.621 280.554 206.619 280.472C206.618 280.39 206.6 280.309 206.567 280.234L190.734 243.922H189.376L205.421 280.682Z" fill="white"/>
<path d="M283.637 243.872L267.256 277.418C267.22 277.492 267.199 277.572 267.194 277.654C267.188 277.736 267.2 277.818 267.226 277.895C267.253 277.973 267.294 278.044 267.349 278.106C267.403 278.167 267.469 278.217 267.543 278.253C267.627 278.298 267.721 278.32 267.817 278.315C267.932 278.316 268.045 278.284 268.142 278.222C268.24 278.16 268.317 278.071 268.365 277.967L285.02 243.872H283.637Z" fill="white"/>
<path d="M201.933 259.256C201.981 259.368 202.062 259.463 202.163 259.529C202.265 259.595 202.384 259.631 202.506 259.63C202.588 259.649 202.673 259.649 202.755 259.63C202.83 259.598 202.899 259.55 202.956 259.491C203.013 259.433 203.058 259.363 203.088 259.286C203.118 259.21 203.133 259.128 203.131 259.046C203.13 258.964 203.112 258.883 203.079 258.808L196.713 243.922H195.356L201.933 259.256Z" fill="white"/>
<path d="M297.576 135.598V139.709" stroke="#434A5B" stroke-linecap="round" stroke-linejoin="round"/>
<path d="M297.576 111.407V132.857" stroke="#434A5B" stroke-linecap="round" stroke-linejoin="round"/>
<path d="M300.018 156.563V173.628" stroke="#434A5B" stroke-linecap="round" stroke-linejoin="round"/>
<path d="M299.594 117.125V153.548C299.594 153.548 300.528 153.548 301.002 150.945C301.475 148.341 300.528 143.147 301.712 140.979C302.895 138.812 304.552 137.429 305.262 135.299C305.972 133.169 303.605 131.562 304.552 127.962C305.498 124.362 309.534 126.305 308.812 121.572C308.438 119.08 305.673 118.208 303.742 117.112C303.103 116.832 302.576 116.345 302.247 115.729C301.861 114.758 303.082 112.54 302.247 111.818C301.413 111.095 300.167 112.254 299.756 113.064C299.245 114.247 299.594 115.916 299.594 117.125Z" fill="white" stroke="#434A5B" stroke-miterlimit="10"/>
<path d="M141.692 324.53V371.355" stroke="#434A5B" stroke-linecap="round" stroke-linejoin="round"/>
<path d="M141.767 304.175V322.337C141.767 322.337 141.306 322.337 141.069 321.092C140.832 319.846 141.306 317.205 140.708 316.109C140.034 315.222 139.442 314.275 138.939 313.281C138.59 312.223 139.761 311.388 139.288 309.619C138.814 307.85 136.796 308.797 137.17 306.43C137.357 305.184 138.74 304.761 139.661 304.213C139.981 304.07 140.245 303.825 140.409 303.515C140.596 303.029 139.998 301.933 140.409 301.572C140.82 301.211 141.443 301.784 141.654 302.195C141.814 302.842 141.852 303.514 141.767 304.175Z" fill="white" stroke="#434A5B" stroke-miterlimit="10"/>
<path d="M174.777 118.457V137.554" stroke="#434A5B" stroke-linecap="round" stroke-linejoin="round"/>
<path d="M174.777 141.739V148.727" stroke="#434A5B" stroke-linecap="round" stroke-linejoin="round"/>
<path d="M172.497 182.51V189.498" stroke="#434A5B" stroke-linecap="round" stroke-linejoin="round"/>
<path d="M172.983 119.927V179.72C172.983 179.72 172.037 179.72 171.563 175.447C171.09 171.175 172.037 162.617 170.853 159.129C169.67 155.641 168.013 153.299 167.303 149.799C166.593 146.298 168.96 143.57 168.013 137.753C167.066 131.936 163.03 135.025 163.753 127.252C164.126 123.129 166.892 121.721 168.823 119.915C169.546 119.334 170.069 118.541 170.318 117.648C170.704 116.053 169.483 112.403 170.318 111.232C171.152 110.062 172.41 111.943 172.809 113.3C173.32 115.194 172.983 117.947 172.983 119.927Z" fill="white" stroke="#434A5B" stroke-miterlimit="10"/>
<path d="M237.335 310.279V345.146" stroke="#434A5B" stroke-linecap="round" stroke-linejoin="round"/>
<path d="M179.025 284.494V288.605" stroke="#434A5B" stroke-linecap="round" stroke-linejoin="round"/>
<path d="M179.025 260.303V281.753" stroke="#434A5B" stroke-linecap="round" stroke-linejoin="round"/>
<path d="M176.571 305.446V345.619" stroke="#434A5B" stroke-linecap="round" stroke-linejoin="round"/>
<path d="M177.007 266.02V302.444C177.007 302.444 176.06 302.444 175.587 299.841C175.113 297.237 176.06 292.03 174.877 289.875C173.693 287.72 172.037 286.325 171.327 284.195C170.616 282.065 172.983 280.458 172.037 276.858C171.09 273.258 167.054 275.201 167.776 270.467C168.15 267.976 170.915 267.104 172.846 265.995C173.487 265.724 174.015 265.24 174.341 264.625C174.727 263.654 173.506 261.436 174.341 260.714C175.176 259.991 176.434 261.15 176.832 261.959C177.381 263.143 177.007 264.812 177.007 266.02Z" fill="white" stroke="#434A5B" stroke-miterlimit="10"/>
<path d="M331.57 324.53V343.788" stroke="#434A5B" stroke-linecap="round" stroke-linejoin="round"/>
<path d="M331.496 304.175V322.337C331.496 322.337 331.969 322.337 332.206 321.092C332.442 319.846 331.969 317.205 332.555 316.109C333.228 315.222 333.82 314.275 334.323 313.281C334.672 312.223 333.501 311.388 333.975 309.619C334.448 307.85 336.466 308.797 336.092 306.43C335.905 305.184 334.535 304.761 333.601 304.213C333.281 304.07 333.018 303.825 332.854 303.515C332.667 303.029 333.277 301.933 332.854 301.572C332.43 301.211 331.82 301.784 331.608 302.195C331.442 302.841 331.404 303.514 331.496 304.175Z" fill="white" stroke="#434A5B" stroke-miterlimit="10"/>
<path d="M292.818 301.198V305.309" stroke="#434A5B" stroke-linecap="round" stroke-linejoin="round"/>
<path d="M292.818 277.007V298.458" stroke="#434A5B" stroke-linecap="round" stroke-linejoin="round"/>
<path d="M295.259 322.163V392.482" stroke="#434A5B" stroke-linecap="round" stroke-linejoin="round"/>
<path d="M294.835 282.675V319.111C294.835 319.111 295.782 319.111 296.256 316.508C296.729 313.904 295.782 308.697 296.966 306.542C298.149 304.387 299.806 302.992 300.516 300.862C301.226 298.732 298.859 297.125 299.806 293.537C300.752 289.95 304.788 291.881 304.053 287.147C303.68 284.656 300.927 283.771 298.996 282.675C298.357 282.396 297.827 281.915 297.489 281.305C297.103 280.321 298.323 278.104 297.489 277.393C296.654 276.683 295.396 277.829 294.997 278.639C294.474 279.847 294.835 281.529 294.835 282.675Z" fill="white" stroke="#434A5B" stroke-miterlimit="10"/>
</svg>
