<svg width="478" height="453" viewBox="0 0 478 453" fill="none" xmlns="http://www.w3.org/2000/svg">
<g clip-path="url(#clip0_578_771)">
<path opacity="0.6" d="M452.183 108.371C450.615 105.7 448.958 103.089 447.231 100.528C424.23 66.4261 384.647 43.106 345.709 32.5628C328.661 27.9464 311.047 25.5241 293.404 24.9284C177.692 21.007 131.599 112.242 93.3559 135.791C55.1026 159.329 -3.74099 199.556 0.188531 283.932C4.11805 368.307 64.9066 447.778 182.594 452.682C300.271 457.587 308.12 404.612 373.821 384.985C417.303 372 448.194 328.14 463.326 287.605C483.946 232.367 482.974 160.61 452.193 108.361L452.183 108.371Z" fill="#FFBE37"/>
<path opacity="0.7" d="M452.183 108.371C450.615 105.7 448.958 103.089 447.231 100.528C424.23 66.4261 384.647 43.106 345.709 32.5628C328.661 27.9464 311.047 25.5241 293.404 24.9284C177.692 21.007 131.599 112.242 93.3559 135.791C55.1026 159.329 -3.74099 199.556 0.188531 283.932C4.11805 368.307 64.9066 447.778 182.594 452.682C300.271 457.587 308.12 404.612 373.821 384.985C417.303 372 448.194 328.14 463.326 287.605C483.946 232.367 482.974 160.61 452.193 108.361L452.183 108.371Z" fill="white"/>
<path opacity="0.2" d="M449.702 276.625H408.025V293.502H449.702V276.625Z" fill="black"/>
<path opacity="0.2" d="M314.133 140.367H272.457V157.244H314.133V140.367Z" fill="black"/>
<path opacity="0.2" d="M288.463 165.872H246.786V182.749H288.463V165.872Z" fill="black"/>
<path opacity="0.2" d="M316.694 53.8378H275.017V70.7149H316.694V53.8378Z" fill="black"/>
<path opacity="0.2" d="M282.995 258.517H241.318V275.394H282.995V258.517Z" fill="black"/>
<path opacity="0.2" d="M200.832 107.815H159.156V124.692H200.832V107.815Z" fill="black"/>
<path opacity="0.2" d="M246.478 107.815H204.802V124.692H246.478V107.815Z" fill="black"/>
<path opacity="0.2" d="M211.549 383.318H169.872V400.195H211.549V383.318Z" fill="black"/>
<path opacity="0.2" d="M189.718 404.166H148.042V421.043H189.718V404.166Z" fill="black"/>
<path opacity="0.1" d="M265.64 189.202H223.963V206.079H265.64V189.202Z" fill="black"/>
<path opacity="0.1" d="M203.988 65.8304H162.311V82.7075H203.988V65.8304Z" fill="black"/>
<path opacity="0.1" d="M473.517 317.09H431.841V333.967H473.517V317.09Z" fill="black"/>
<path opacity="0.1" d="M229.411 342.902H187.734V359.779H229.411V342.902Z" fill="black"/>
<path opacity="0.1" d="M277.041 342.902H235.364V359.779H277.041V342.902Z" fill="black"/>
<path opacity="0.1" d="M281.01 319.076H239.334V335.953H281.01V319.076Z" fill="black"/>
<path opacity="0.1" d="M313.27 189.202H271.593V206.079H313.27V189.202Z" fill="black"/>
<path opacity="0.2" d="M334.595 402.468H292.918V419.345H334.595V402.468Z" fill="black"/>
<path opacity="0.1" d="M311.772 425.798H270.095V442.675H311.772V425.798Z" fill="black"/>
<path opacity="0.1" d="M359.402 425.798H317.726V442.675H359.402V425.798Z" fill="black"/>
<path opacity="0.2" d="M132.552 192.408H90.8751V209.285H132.552V192.408Z" fill="black"/>
<path opacity="0.1" d="M109.729 215.738H68.0522V232.615H109.729V215.738Z" fill="black"/>
<path opacity="0.1" d="M157.359 215.738H115.683V232.615H157.359V215.738Z" fill="black"/>
<path opacity="0.2" d="M116.288 318.083H74.6113V334.96H116.288V318.083Z" fill="black"/>
<path opacity="0.1" d="M300.856 237.381H259.18V254.258H300.856V237.381Z" fill="black"/>
<path opacity="0.1" d="M238.341 403.173H196.665V420.05H238.341V403.173Z" fill="black"/>
<path opacity="0.1" d="M224.648 86.9665H182.971V103.844H224.648V86.9665Z" fill="black"/>
<path opacity="0.2" d="M92.4727 262.2H50.796V279.077H92.4727V262.2Z" fill="black"/>
<path opacity="0.1" d="M116.288 241.352H74.6113V258.229H116.288V241.352Z" fill="black"/>
<path opacity="0.1" d="M222.464 139.881H180.788V156.758H222.464V139.881Z" fill="black"/>
<path opacity="0.1" d="M161.706 149.789H120.029V166.666H161.706V149.789Z" fill="black"/>
<path opacity="0.2" d="M367.341 276.625H325.664V293.502H367.341V276.625Z" fill="black"/>
<path opacity="0.2" d="M63.2295 369.975H21.5528V386.852H63.2295V369.975Z" fill="black"/>
<path opacity="0.1" d="M45.2292 132.842H3.55243V149.719H45.2292V132.842Z" fill="black"/>
<path opacity="0.1" d="M92.8597 132.842H51.183V149.719H92.8597V132.842Z" fill="black"/>
<path opacity="0.1" d="M96.829 109.016H55.1522V125.893H96.829V109.016Z" fill="black"/>
<path opacity="0.1" d="M65.6805 176.822H24.0038V193.699H65.6805V176.822Z" fill="black"/>
<path opacity="0.2" d="M119.791 387.348H78.1141V404.225H119.791V387.348Z" fill="black"/>
<g opacity="0.3">
<path d="M316.039 4.06042V242.156H465.847V4.06042H316.039ZM460.389 61.2637H394.361V12.7273H460.389V61.2538V61.2637ZM394.361 125.943H460.389V177.944H394.361V125.943ZM394.361 119.599V67.5976H460.389V119.599H394.361ZM321.486 12.7273H387.514V61.2538H321.814V67.5976H387.514V119.599H321.814V125.943H387.514V177.944H321.814V184.288H387.514V233.509H321.486V12.7273ZM394.351 233.489V184.268H460.379V233.489H394.351Z" stroke="black" stroke-linecap="round" stroke-linejoin="round"/>
<path d="M378.058 27.2316L344.746 54.8207" stroke="black" stroke-linecap="round" stroke-linejoin="round"/>
<path d="M444.115 81.2581L410.794 108.837" stroke="black" stroke-linecap="round" stroke-linejoin="round"/>
<path d="M368.869 197.908L335.557 225.487" stroke="black" stroke-linecap="round" stroke-linejoin="round"/>
<path d="M360.583 35.283L345.322 47.9209" stroke="black" stroke-linecap="round" stroke-linejoin="round"/>
<path d="M441.575 74.9341L426.303 87.5721" stroke="black" stroke-linecap="round" stroke-linejoin="round"/>
<path d="M366.904 206.526L351.633 219.173" stroke="black" stroke-linecap="round" stroke-linejoin="round"/>
<path d="M362.31 145.619L347.038 158.257" stroke="black" stroke-linecap="round" stroke-linejoin="round"/>
<path d="M440.424 199.06L425.152 211.698" stroke="black" stroke-linecap="round" stroke-linejoin="round"/>
<path d="M475.125 241.997H307.406V262.845H475.125V241.997Z" stroke="black" stroke-linecap="round" stroke-linejoin="round"/>
</g>
<g opacity="0.3">
<path d="M69.491 95.6731L70.1062 89.6768H30.3843L30.9996 95.6731H69.491Z" stroke="black" stroke-linecap="round" stroke-linejoin="round"/>
<path d="M67.8637 111.448H32.627L28.2211 68.7889H72.2596L67.8637 111.448Z" stroke="black" stroke-linecap="round" stroke-linejoin="round"/>
<path d="M35.4153 68.4811C35.4153 68.4811 29.8187 67.677 24.619 63.279C19.4194 58.8811 10.2306 57.6798 7.03543 60.0823C3.84021 62.4848 0.635071 65.6815 0.635071 65.6815C0.635071 65.6815 3.03644 56.8856 9.42688 54.8802C15.8272 52.8847 19.8163 54.8802 23.4184 56.4786C27.0204 58.0769 28.618 59.2782 32.617 61.6807C36.616 64.0832 39.0174 66.0786 39.0174 66.0786C39.0174 66.0786 37.8167 60.8765 35.4153 58.484C33.0139 56.0815 18.6255 45.6872 18.6255 45.6872C18.6255 45.6872 26.6235 47.6826 31.8132 50.0851C37.0129 52.4876 41.0119 56.8856 41.4088 58.8811C41.8057 60.8765 43.4034 64.4803 43.4034 64.4803L45.001 68.4811C45.001 68.4811 44.604 62.4848 44.1972 58.0869C43.7903 53.6889 42.9965 50.8893 43.3934 46.4913C43.7903 42.0934 44.5941 39.2938 44.5941 36.8913C44.5941 34.4888 45.7948 32.0962 45.7948 32.0962C45.7948 32.0962 47.3924 43.2946 48.1962 46.8884C48.9999 50.4922 48.9999 55.2872 49.3969 57.6897C49.7938 60.0922 50.9945 67.2898 50.9945 67.2898C50.9945 67.2898 50.1907 61.2935 52.5921 58.0869C54.9935 54.8901 55.7873 52.4876 57.3849 50.0851C58.9825 47.6826 60.987 43.6818 60.987 43.6818C60.987 43.6818 60.987 50.0851 59.3894 54.0761C57.7917 58.0769 56.5911 60.0724 56.5911 61.6707V67.27C56.5911 67.27 60.59 60.0724 62.9914 58.067C65.3928 56.0715 66.9904 56.0715 67.7842 54.8703C68.588 53.669 73.3808 50.8694 73.3808 50.8694C73.3808 50.8694 70.5825 57.2728 69.7788 58.4641C68.975 59.6654 64.9859 63.2592 64.9859 63.2592C64.9859 63.2592 69.7788 60.8567 73.7778 59.6554C77.7767 58.4542 83.7702 57.2529 86.1716 57.2529C88.573 57.2529 96.561 56.0517 96.561 56.0517C96.561 56.0517 89.3668 59.2484 84.9709 60.8467C80.575 62.4451 77.7767 63.2492 76.1791 63.6464L74.5815 64.0435C74.5815 64.0435 80.1781 64.8476 85.7747 66.8431C91.3713 68.8385 92.9689 70.4468 93.7727 71.6381C94.5764 72.8394 94.9734 74.8348 94.9734 74.8348C94.9734 74.8348 97.3747 76.8303 97.3747 78.4386C97.3747 80.0469 86.5785 70.8439 82.5894 69.6427C78.5904 68.4414 72.2695 68.7492 72.2695 68.7492" stroke="black" stroke-linecap="round" stroke-linejoin="round"/>
</g>
<g opacity="0.3">
<path d="M94.4971 125.873L94.0803 121.813H121.001L120.575 125.873H94.4971Z" stroke="black" stroke-linecap="round" stroke-linejoin="round"/>
<path d="M95.6084 136.565H119.473L122.46 107.656H92.6216L95.6084 136.565Z" stroke="black" stroke-linecap="round" stroke-linejoin="round"/>
<path d="M117.588 107.447C117.588 107.447 121.379 106.901 124.901 103.923C128.424 100.945 134.656 100.131 136.819 101.759C138.982 103.387 141.155 105.551 141.155 105.551C141.155 105.551 139.528 99.5945 135.201 98.2344C130.865 96.8842 128.156 98.2344 125.725 99.3165C123.284 100.399 122.202 101.213 119.493 102.841C116.784 104.469 115.157 105.819 115.157 105.819C115.157 105.819 115.971 102.295 117.598 100.667C119.225 99.0386 128.97 91.9998 128.97 91.9998C128.97 91.9998 123.552 93.35 120.029 94.9781C116.506 96.6063 113.797 99.5846 113.529 100.935C113.262 102.285 112.18 104.727 112.18 104.727L111.098 107.437C111.098 107.437 111.366 103.377 111.644 100.389C111.912 97.4104 112.458 95.5142 112.19 92.526C111.922 89.5477 111.376 87.6515 111.376 86.0234C111.376 84.3952 110.562 82.7671 110.562 82.7671C110.562 82.7671 109.481 90.3518 108.935 92.794C108.389 95.2363 108.389 98.4826 108.121 100.111C107.853 101.739 107.04 106.613 107.04 106.613C107.04 106.613 107.586 102.553 105.958 100.379C104.331 98.2146 103.795 96.5864 102.703 94.9583C101.622 93.3301 100.262 90.6199 100.262 90.6199C100.262 90.6199 100.262 94.9583 101.344 97.6685C102.426 100.379 103.239 101.729 103.239 102.821V106.613C103.239 106.613 100.53 101.739 98.9029 100.379C97.2755 99.0286 96.1939 99.0286 95.6481 98.2146C95.1024 97.4005 91.8575 95.5043 91.8575 95.5043C91.8575 95.5043 93.7528 99.8427 94.2986 100.657C94.8444 101.471 97.5534 103.913 97.5534 103.913C97.5534 103.913 94.2986 102.285 91.5995 101.471C88.8905 100.657 84.832 99.8427 83.2046 99.8427C81.5773 99.8427 76.1593 99.0286 76.1593 99.0286C76.1593 99.0286 81.0315 101.193 84.0183 102.285C86.9952 103.367 88.8905 103.913 89.9722 104.181L91.0538 104.449C91.0538 104.449 87.2632 104.995 83.4726 106.345C79.682 107.695 78.6004 108.788 78.0546 109.602C77.5088 110.416 77.2409 111.766 77.2409 111.766C77.2409 111.766 75.6135 113.116 75.6135 114.208C75.6135 115.3 82.9268 109.056 85.6358 108.251C88.3448 107.437 92.6315 107.646 92.6315 107.646" stroke="black" stroke-linecap="round" stroke-linejoin="round"/>
</g>
<g opacity="0.3">
<path d="M146.325 57.4813L146.801 52.8152H115.931L116.407 57.4813H146.325Z" stroke="black" stroke-linecap="round" stroke-linejoin="round"/>
<path d="M145.055 69.7419H117.677L114.254 36.5835H148.478L145.055 69.7419Z" stroke="black" stroke-linecap="round" stroke-linejoin="round"/>
<path d="M114.254 36.5835C114.254 36.5835 110.453 32.8408 108.231 31.8877C106.008 30.9346 101.89 29.3462 101.89 29.3462C101.89 29.3462 106.96 29.3462 110.443 30.9346C113.926 32.5231 117.419 34.7369 117.419 34.7369C117.419 34.7369 114.254 30.2993 111.714 27.1224C109.173 23.9555 103.477 18.5648 103.16 16.9763C102.842 15.3879 110.771 22.3671 116.159 26.487C121.547 30.607 122.5 33.4662 122.5 33.4662C122.5 33.4662 118.382 25.8517 115.206 19.2001C112.031 12.5486 109.183 8.73635 108.231 7.46561C107.278 6.19487 117.419 17.9294 120.912 23.6378C124.395 29.3462 126.618 32.8308 126.618 32.8308C126.618 32.8308 122.817 13.8094 122.182 9.3618C121.547 4.9142 120.912 0.48645 120.912 0.48645C120.912 0.48645 126.935 17.9294 127.888 21.0963C128.841 24.2632 130.428 29.9717 130.428 29.9717C130.428 29.9717 132.334 20.7786 132.969 15.0702C133.604 9.3618 136.452 1.12182 136.452 1.12182C136.452 1.12182 135.181 18.8824 134.864 23.3201C134.546 27.7578 134.229 32.1955 134.229 32.1955C134.229 32.1955 137.394 23.9555 140.252 20.1433C143.1 16.341 148.181 11.2679 148.181 11.2679C148.181 11.2679 142.792 21.414 141.522 24.5909C140.252 27.7578 138.674 33.4662 138.674 33.4662C138.674 33.4662 145.015 23.6378 147.863 20.4609C150.711 17.294 153.569 15.7056 156.099 14.1172C158.64 12.5287 148.171 25.2163 146.911 28.0655C145.64 30.9148 144.063 33.4563 144.063 33.4563C144.063 33.4563 145.968 30.9148 151.039 29.0186C156.109 27.1125 164.98 25.2163 166.25 25.2163C167.521 25.2163 158.322 29.0186 155.157 30.2893C151.991 31.5601 148.498 36.5636 148.498 36.5636" stroke="black" stroke-linecap="round" stroke-linejoin="round"/>
</g>
<path d="M374.75 156.074C378.364 141.397 365.618 125.634 346.281 120.868C326.944 116.102 308.338 124.136 304.723 138.814C301.109 153.491 313.855 169.254 333.192 174.02C352.53 178.786 371.136 170.752 374.75 156.074Z" fill="#FFBE37" stroke="#434A5B" stroke-linecap="round" stroke-linejoin="round"/>
<path d="M319.353 159.29C319.353 159.29 312.199 161.245 308.944 157.334C305.689 153.432 310.571 142.035 315.94 136.823C321.308 131.611 336.441 129.338 344.25 130.152C352.059 130.966 361.337 136.823 362.637 143.008C363.937 149.193 361.337 155.219 361.169 157.165C361.01 159.121 356.455 159.121 355.8 158.138C355.145 157.165 345.391 142.839 343.436 142.184C341.481 141.529 340.181 142.839 338.068 143.971C335.954 145.113 319.849 151.943 319.849 151.943L319.363 159.27L319.353 159.29Z" fill="#434A5B" stroke="#434A5B" stroke-linecap="round" stroke-linejoin="round"/>
<path d="M343.049 322.65L339.834 301.752L332.441 327.147C330.655 330.205 328.542 334.146 327.579 337.214C325.743 343.031 334.992 361.358 335.607 359.422C336.222 357.486 339.705 332.607 339.705 332.607C339.705 332.607 340.35 328.338 340.072 324.983L343.059 322.64L343.049 322.65Z" fill="white" stroke="#434A5B" stroke-linecap="round" stroke-linejoin="round"/>
<path d="M338.762 337.442C338.762 337.442 332.074 339.715 332.074 353.932C332.074 357.803 337.592 398.497 337.592 405.307V433.542H374.545L379.11 406.737L382.533 432.976H419.596C419.596 432.976 423.297 391.617 423.585 386.485C423.872 381.352 426.432 370.223 425.579 354.825C424.726 339.427 421.302 333.431 421.302 333.431L339.596 332.001L338.772 337.442H338.762Z" fill="#434A5B" stroke="#434A5B" stroke-linecap="round" stroke-linejoin="round"/>
<path d="M345.619 194.334C345.619 194.334 328.204 209.176 324.434 213.247C320.524 217.466 322.151 240.706 327.153 256.72C332.154 272.733 337.463 297.503 337.711 302.506C337.959 307.51 338.762 337.442 338.762 337.442C338.762 337.442 369.841 349.702 388.844 346.704C407.857 343.706 421.362 335.695 421.362 335.695C421.362 335.695 418.365 284.388 418.365 273.13C418.365 261.872 415.864 224.584 413.364 211.569C410.863 198.554 402.111 190.8 395.602 190.046C389.102 189.291 364.771 188.199 364.771 188.199L345.619 194.334Z" fill="white" stroke="#434A5B" stroke-linecap="round" stroke-linejoin="round"/>
<path d="M336.827 190.82C336.827 190.82 344.687 212.889 345.996 213.108C347.306 213.326 350.799 209.831 350.799 209.831L364.771 188.209L359.214 168.254C359.214 168.254 356.038 178.817 349.926 185.588C343.813 192.359 336.827 190.83 336.827 190.83V190.82Z" fill="white" stroke="#434A5B" stroke-linecap="round" stroke-linejoin="round"/>
<path d="M352.01 186.511L341.7 202.475L336.827 190.82L352.01 186.511Z" fill="#434A5B" stroke="#434A5B" stroke-linecap="round" stroke-linejoin="round"/>
<path d="M342.95 136.178C342.95 136.178 333.999 143.336 326.845 145.947C319.69 148.558 316.108 149.531 316.108 149.531C316.108 149.531 318.39 164.015 319.035 168.086C319.68 172.156 321.149 178.986 324.076 181.925C327.004 184.853 334.168 191.852 337.413 193.639C340.658 195.426 346.195 193.967 347.822 193.153C349.45 192.339 358.886 178.013 359.373 176.057C359.859 174.102 359.214 168.244 359.214 168.244C359.214 168.244 363.441 165.961 364.096 163.688C364.751 161.404 363.282 152.946 361.982 151.804C360.682 150.662 358.569 151.963 358.241 153.273C357.914 154.574 356.941 156.53 356.941 156.53C356.941 156.53 356.783 153.115 355.473 151C354.173 148.885 354.173 148.071 351.077 145.629C347.981 143.187 342.94 136.188 342.94 136.188L342.95 136.178Z" fill="white" stroke="#434A5B" stroke-linecap="round" stroke-linejoin="round"/>
<path d="M332.045 168.244L332.531 172.642C332.531 172.642 337.899 172.484 340.34 169.873" stroke="#434A5B" stroke-linecap="round" stroke-linejoin="round"/>
<path d="M329.604 177.189C329.604 177.189 333.503 178.49 339.527 176.703C345.55 174.916 347.009 170.677 347.009 170.677" stroke="#434A5B" stroke-linecap="round" stroke-linejoin="round"/>
<path d="M328.462 157.334C328.462 157.334 321.467 155.05 319.353 159.29" stroke="#434A5B" stroke-linecap="round" stroke-linejoin="round"/>
<path d="M335.627 154.733C335.627 154.733 340.34 150.017 345.222 151.804" stroke="#434A5B" stroke-linecap="round" stroke-linejoin="round"/>
<path d="M327.738 163.588C328.204 164.859 328.065 166.07 327.43 166.299C326.795 166.527 325.912 165.693 325.446 164.422C324.979 163.151 325.118 161.94 325.753 161.712C326.388 161.484 327.272 162.318 327.738 163.588Z" fill="#434A5B"/>
<path d="M342.881 158.942C343.347 160.213 343.208 161.424 342.573 161.652C341.938 161.881 341.055 161.047 340.588 159.776C340.122 158.505 340.261 157.294 340.896 157.066C341.531 156.837 342.414 157.671 342.881 158.942Z" fill="#434A5B"/>
<path d="M379.844 217.565L394.103 268.613C394.103 268.613 393.349 271.115 393.855 272.614C394.351 274.113 394.609 275.364 394.609 275.364C394.609 275.364 390.61 295.388 387.107 307.649C383.605 319.91 371.102 346.684 371.598 349.693C372.094 352.691 369.097 375.217 370.596 376.219C372.094 377.222 375.597 378.721 376.599 378.721C377.601 378.721 382.106 379.218 383.605 379.218C385.103 379.218 390.61 378.969 391.613 376.964C392.615 374.959 392.367 373.708 390.858 374.214C389.36 374.71 386.859 374.968 386.859 374.968L385.857 372.963C385.857 372.963 387.108 364.207 385.857 357.694C384.607 351.192 384.111 348.938 384.111 348.938C384.111 348.938 415.378 298.138 416.629 288.627C417.879 279.117 419.883 268.603 419.883 263.848C419.883 259.093 414.882 216.304 413.384 211.549C411.885 206.794 411.131 202.038 407.132 198.037C403.133 194.036 400.375 194.036 398.38 194.036" fill="white"/>
<path d="M379.844 217.565L394.103 268.613C394.103 268.613 393.349 271.115 393.855 272.614C394.351 274.113 394.609 275.364 394.609 275.364C394.609 275.364 390.61 295.388 387.107 307.649C383.605 319.91 371.102 346.684 371.598 349.693C372.094 352.691 369.097 375.217 370.596 376.219C372.094 377.222 375.597 378.721 376.599 378.721C377.601 378.721 382.106 379.218 383.605 379.218C385.103 379.218 390.61 378.969 391.613 376.964C392.615 374.959 392.367 373.708 390.858 374.214C389.36 374.71 386.859 374.968 386.859 374.968L385.857 372.963C385.857 372.963 387.108 364.207 385.857 357.694C384.607 351.192 384.111 348.938 384.111 348.938C384.111 348.938 415.378 298.138 416.629 288.627C417.879 279.117 419.883 268.603 419.883 263.848C419.883 259.093 414.882 216.304 413.384 211.549C411.885 206.794 411.131 202.038 407.132 198.037C403.133 194.036 400.375 194.036 398.38 194.036" stroke="#434A5B" stroke-linecap="round" stroke-linejoin="round"/>
<path d="M396.614 274.014C396.614 274.014 403.957 270.956 410.238 273.706" stroke="#434A5B" stroke-linecap="round" stroke-linejoin="round"/>
<path d="M401.357 268.494C401.357 268.494 409.772 266.509 415.13 272.783" stroke="#434A5B" stroke-linecap="round" stroke-linejoin="round"/>
<path d="M389.459 298.625C388.675 301.821 387.872 304.929 387.098 307.659C383.595 319.92 371.092 346.694 371.588 349.703C372.084 352.701 369.087 375.227 370.586 376.229C372.084 377.232 375.587 378.731 376.589 378.731C377.591 378.731 382.096 379.227 383.595 379.227C385.093 379.227 390.6 378.979 391.603 376.974C392.605 374.969 392.357 373.718 390.848 374.224C389.35 374.72 386.85 374.978 386.85 374.978L385.847 372.973C385.847 372.973 387.098 364.217 385.847 357.704C384.597 351.192 384.101 348.948 384.101 348.948C384.101 348.948 399.124 324.536 408.76 306.388C402.528 299.905 394.669 298.615 389.469 298.615L389.459 298.625Z" fill="white" stroke="#434A5B" stroke-linecap="round" stroke-linejoin="round"/>
<path d="M380.747 374.591C380.747 374.591 383.228 376.686 384.081 377.361C384.934 378.036 385.222 378.701 386.85 378.89" fill="white"/>
<path d="M380.747 374.591C380.747 374.591 383.228 376.686 384.081 377.361C384.934 378.036 385.222 378.701 386.85 378.89" stroke="#434A5B" stroke-linecap="round" stroke-linejoin="round"/>
<path d="M375.885 375.832C375.885 375.832 379.606 378.602 381.898 379.168L375.885 375.832Z" fill="white"/>
<path d="M375.885 375.832C375.885 375.832 379.606 378.602 381.898 379.168" stroke="#434A5B" stroke-linecap="round" stroke-linejoin="round"/>
<path d="M371.786 375.266C371.786 375.266 373.503 377.56 375.408 378.413L371.786 375.266Z" fill="white"/>
<path d="M371.786 375.266C371.786 375.266 373.503 377.56 375.408 378.413" stroke="#434A5B" stroke-linecap="round" stroke-linejoin="round"/>
<path d="M338.663 331.267C338.663 331.267 339.566 337.988 339.933 339.08C340.301 340.172 339.755 342.167 340.112 346.347C340.479 350.527 341.561 354.885 338.842 354.16C336.123 353.435 334.843 346.347 335.031 344.53C335.21 342.713 331.945 337.263 331.945 337.263" fill="white"/>
<path d="M338.663 331.267C338.663 331.267 339.566 337.988 339.933 339.08C340.301 340.172 339.755 342.167 340.112 346.347C340.479 350.527 341.561 354.885 338.842 354.16C336.123 353.435 334.843 346.347 335.031 344.53C335.21 342.713 331.945 337.263 331.945 337.263" stroke="#434A5B" stroke-linecap="round" stroke-linejoin="round"/>
<path d="M285.793 294.415C283.253 289.551 264.389 222.648 264.389 222.648C260.837 232.387 258.565 280.407 258.565 280.407L260.628 305.872L260.261 310.647C265.193 307.272 277.269 300.59 285.297 309.485C285.426 309.019 285.515 308.622 285.565 308.314C286.607 301.901 288.334 299.3 285.793 294.425V294.415Z" fill="#FFBE37" stroke="#434A5B" stroke-linecap="round" stroke-linejoin="round"/>
<path d="M279.711 300.858C280.991 301.077 282.231 301.424 283.402 301.94" stroke="#434A5B" stroke-linecap="round" stroke-linejoin="round"/>
<path d="M262.018 303.211C262.018 303.211 268.359 300.719 275.096 300.551" stroke="#434A5B" stroke-linecap="round" stroke-linejoin="round"/>
<path d="M282.161 298.178C282.161 298.178 276.595 294.802 272.139 296.133" stroke="#434A5B" stroke-linecap="round" stroke-linejoin="round"/>
<path d="M169.485 432.867L170.666 381.858L174.288 353.872L258.624 350.993L266.146 371.057L270.77 433.532H228.091L220.023 392.153L217.711 396.134L216.828 432.648L169.485 432.867Z" fill="#434A5B" stroke="#434A5B" stroke-linecap="round" stroke-linejoin="round"/>
<path d="M196.049 213.137C196.049 213.137 159.314 222.876 157.082 223.978C154.839 225.08 159.781 258.497 163.244 270.668C166.707 282.84 175.132 327.534 175.132 327.534L174.566 359.839C174.566 359.839 210.597 360.722 225.015 358.955C239.433 357.188 255.23 353.197 255.23 353.197C255.23 353.197 260.351 324.655 258.594 305.842C256.838 287.029 261.948 240.339 262.028 237.242C262.107 234.144 264.369 222.638 264.369 222.638C264.369 222.638 236.922 214.229 229.867 213.346C222.812 212.462 206.23 212.016 196.03 213.127L196.049 213.137Z" fill="#FFBE37" stroke="#434A5B" stroke-linecap="round" stroke-linejoin="round"/>
<path d="M189.133 221.377C189.133 221.377 193.708 233.995 204.514 241.53" stroke="#434A5B" stroke-linecap="round" stroke-linejoin="round"/>
<path d="M227.029 219.144C227.029 219.144 225.084 224.028 221.899 229.319" stroke="#434A5B" stroke-linecap="round" stroke-linejoin="round"/>
<path d="M221.224 231.96L219.329 234.611" stroke="#434A5B" stroke-linecap="round" stroke-linejoin="round"/>
<path d="M207.997 356.245C216.531 355.739 232.179 354.369 242.34 350.824" stroke="#434A5B" stroke-linecap="round" stroke-linejoin="round"/>
<path d="M201.924 356.513C201.924 356.513 202.896 356.493 204.563 356.414" stroke="#434A5B" stroke-linecap="round" stroke-linejoin="round"/>
<path d="M237.071 347.032C225.868 348.491 208.88 349.812 195.643 346.953" stroke="#434A5B" stroke-linecap="round" stroke-linejoin="round"/>
<path d="M248.989 345.116C248.989 345.116 246.161 345.702 241.616 346.387" stroke="#434A5B" stroke-linecap="round" stroke-linejoin="round"/>
<path d="M248.056 329.569C241.279 333.491 228.329 340.162 215.489 342.277" stroke="#434A5B" stroke-linecap="round" stroke-linejoin="round"/>
<path d="M252.898 326.601C252.898 326.601 251.986 327.216 250.358 328.209" stroke="#434A5B" stroke-linecap="round" stroke-linejoin="round"/>
<path d="M190.86 200.42L192.398 218.19C192.398 218.19 197.826 231.067 210.458 230.233C222.842 229.419 224.667 213.654 224.667 213.654L222.167 194.9C222.167 194.9 211.291 203.984 205.198 203.19C199.106 202.396 190.86 200.43 190.86 200.43V200.42Z" fill="white" stroke="#434A5B" stroke-linecap="round" stroke-linejoin="round"/>
<path d="M178.277 179.383C178.277 179.383 176.025 176.514 174.328 179.105C172.631 181.696 174.645 188.666 177.741 190.175C180.847 191.674 181.661 191.674 181.661 191.674C181.661 191.674 185.184 198.643 187.039 200.688C188.905 202.733 202.46 212.432 205.724 212.979C208.989 213.525 213.653 212.571 215.479 210.655C217.305 208.739 223.08 195.625 223.973 192.488C224.866 189.351 225.025 188.666 225.064 186.75C225.114 184.834 225.015 183.195 225.015 183.195C225.015 183.195 228.269 178.41 228.637 174.588C229.004 170.766 228.121 167.897 226.076 167.351C224.042 166.805 221.76 170.905 221.76 170.905L214.893 149.868C214.893 149.868 212.571 144.13 210.547 143.445C208.513 142.76 193.866 144.537 187.655 147.138C181.443 149.729 175.37 152.469 174.893 155.338C174.417 158.208 178.267 179.383 178.267 179.383H178.277Z" fill="white" stroke="#434A5B" stroke-linecap="round" stroke-linejoin="round"/>
<path d="M189.51 149.938C189.51 149.938 177.791 152.271 177.106 154.177C176.422 156.083 175.489 159.697 176.69 162.457C177.9 165.216 179.25 179.433 179.25 179.433C179.25 179.433 181.046 183.89 179.795 183.255C178.535 182.62 177.602 177.318 177.196 176.673C176.789 176.038 171.52 165.852 169.912 162.03C168.305 158.207 171.788 154.604 172.661 153.75C173.534 152.896 174.407 151.625 174.407 151.625C174.407 151.625 173.494 145.47 176.322 142.71C179.15 139.95 199.612 135.711 201.319 135.076C203.035 134.441 204.811 130.837 206.32 129.983C207.828 129.139 212.224 131.254 214.854 136.565C217.483 141.866 217.235 143.356 216.362 144.418L215.489 145.48C215.489 145.48 218.446 145.907 219.627 149.938C220.797 153.968 222.405 157.79 222.326 160.967C222.246 164.154 221.78 170.27 221.76 170.905C221.74 171.54 221.016 170.935 220.43 168.82C219.845 166.696 214.496 151.208 213.683 149.511C212.879 147.813 211.857 146.116 211.45 145.48C211.043 144.845 193.638 145.48 189.5 149.938H189.51Z" fill="#434A5B" stroke="#434A5B" stroke-linecap="round" stroke-linejoin="round"/>
<path d="M205.724 212.988C208.989 213.534 213.653 212.581 215.479 210.665C217.305 208.749 223.08 195.635 223.973 192.498C224.866 189.361 225.025 188.676 225.064 186.759C225.114 184.843 225.015 183.205 225.015 183.205L222.137 170.309C222.038 170.468 221.949 170.597 221.889 170.697C222.216 174.678 222.812 182.371 222.693 183.473C222.524 184.973 220.837 186.611 219.2 186.889C217.553 187.167 209.803 185.935 206.379 186.204C202.956 186.482 201.835 187.703 199.205 189.073C196.575 190.443 191.177 193.719 189.798 194.126C188.419 194.533 185.849 193.58 184.797 192.21C183.735 190.84 179.25 179.423 179.25 179.423C179.25 180.158 178.496 181.557 178.496 181.557L181.661 191.664C181.661 191.664 185.184 198.633 187.039 200.678C188.905 202.723 202.46 212.423 205.724 212.969V212.988Z" fill="#434A5B" stroke="#434A5B" stroke-linecap="round" stroke-linejoin="round"/>
<path d="M204.107 166.954C204.107 166.954 201.854 169.545 202.251 170.369C202.638 171.193 207.739 186.213 207.56 187.852C207.382 189.49 205.179 190.314 203.422 189.768C201.656 189.222 200.554 184.307 200.554 184.307" fill="white"/>
<path d="M204.107 166.954C204.107 166.954 201.854 169.545 202.251 170.369C202.638 171.193 207.739 186.213 207.56 187.852C207.382 189.49 205.179 190.314 203.422 189.768C201.656 189.222 200.554 184.307 200.554 184.307" stroke="#434A5B" stroke-linecap="round" stroke-linejoin="round"/>
<path d="M206.469 165.584C206.469 165.584 211.331 162.169 215.647 164.492" stroke="#434A5B" stroke-width="3" stroke-linecap="round" stroke-linejoin="round"/>
<path d="M193.688 168.592C193.688 168.592 186.216 166.954 182.941 172.692" stroke="#434A5B" stroke-width="3" stroke-linecap="round" stroke-linejoin="round"/>
<path d="M192.934 175.571C193.201 176.703 192.854 177.765 192.16 177.954C191.465 178.132 190.681 177.368 190.403 176.236C190.135 175.104 190.483 174.042 191.177 173.854C191.872 173.675 192.656 174.439 192.934 175.571Z" fill="#434A5B" stroke="#434A5B" stroke-linecap="round" stroke-linejoin="round"/>
<path d="M210.874 170.855C211.142 171.987 210.795 173.049 210.1 173.238C209.406 173.417 208.622 172.652 208.344 171.52C208.076 170.389 208.423 169.326 209.118 169.138C209.813 168.949 210.597 169.724 210.874 170.855Z" fill="#434A5B" stroke="#434A5B" stroke-linecap="round" stroke-linejoin="round"/>
<path d="M198.213 196.32C198.213 196.32 207.729 198.097 213.345 191.813" stroke="#858585" stroke-linecap="round" stroke-linejoin="round"/>
<path d="M285.565 308.304C285.545 308.443 285.506 308.612 285.466 308.781C285.506 308.602 285.535 308.443 285.565 308.304Z" stroke="#434A5B" stroke-linecap="round" stroke-linejoin="round"/>
<path d="M285.297 309.476C277.269 300.58 265.193 307.262 260.261 310.637L257.701 334.166L256.491 338.593C256.491 338.593 247.411 348.332 246.25 350.318C245.099 352.313 243.293 353.862 241.934 354.964C240.584 356.066 237.686 356.96 237.428 358.28C237.17 359.61 241.586 360.275 242.926 359.61C244.265 358.945 247.669 355.401 247.669 355.401L245.536 361.159L262.821 368.684C262.821 368.684 263.834 363.591 264.35 360.494C264.866 357.396 265.709 350.09 265.957 348.769C266.205 347.479 283.561 316.872 285.426 308.87C285.386 309.049 285.337 309.247 285.277 309.466L285.297 309.476Z" fill="white" stroke="#434A5B" stroke-linecap="round" stroke-linejoin="round"/>
<path d="M157.082 223.978C157.082 223.978 152.557 228.178 151.574 232.387C150.592 236.596 135.588 289.223 132.076 297.185C128.563 305.147 127.967 311.57 129.883 314.668C131.798 317.765 166.38 342.366 166.38 342.366C166.38 342.366 170.061 354.756 171.093 357.853C172.125 360.951 173.981 366.262 173.981 366.262L187.853 359.849C187.853 359.849 190.433 362.728 192.179 364.058C193.916 365.388 196.109 366.053 196.585 364.723C197.062 363.393 194.501 359.63 194.501 359.63C194.501 359.63 193.241 356.98 193.072 354.766C192.904 352.552 189.689 348.571 188.409 346.575C187.129 344.58 176.471 337.283 176.471 337.283L154.73 303.171L163.274 270.678C163.274 270.678 155.563 233.062 157.111 223.988L157.082 223.978Z" fill="white" stroke="#434A5B" stroke-linecap="round" stroke-linejoin="round"/>
<path d="M154.71 303.162L164.554 275.592C164.554 275.592 155.534 233.052 157.082 223.978C157.082 223.978 152.557 228.178 151.574 232.387C150.592 236.596 135.588 289.223 132.076 297.185C128.563 305.147 127.967 311.57 129.883 314.668C130.428 315.551 133.415 319.443 139.319 322.679C141.334 318.827 146.563 309.873 157.915 309.098L154.71 303.162Z" fill="#FFBE37" stroke="#434A5B" stroke-linecap="round" stroke-linejoin="round"/>
<path d="M138.377 301.613C138.377 301.613 145.035 300.729 151.168 303.162" stroke="#434A5B" stroke-linecap="round" stroke-linejoin="round"/>
<path d="M147.278 299.617C147.278 299.617 152.765 301.166 154.71 303.161" stroke="#434A5B" stroke-linecap="round" stroke-linejoin="round"/>
<path d="M264.846 337.819C264.846 337.819 252.333 372.834 256.997 391.726C261.66 410.619 265.908 433.532 265.908 433.532H330.179C330.179 433.532 337.393 410.192 336.54 396.184C335.686 382.176 333.989 366.47 333.989 366.47L330.596 326.144H266.533L264.836 337.819H264.846Z" fill="#434A5B" stroke="#434A5B" stroke-linecap="round" stroke-linejoin="round"/>
<path d="M295.181 372.417C295.181 372.417 305.788 394.913 310.452 412.525C315.116 430.137 314.908 433.323 314.908 433.323" stroke="#858585" stroke-linecap="round" stroke-linejoin="round"/>
<path d="M307.058 391.3C307.058 391.3 318.301 381.541 321.695 369.866" stroke="#858585" stroke-linecap="round" stroke-linejoin="round"/>
<path d="M302.176 231.712L272.06 241.689C272.06 241.689 282.876 258.884 286.488 283.495C290.1 308.106 288.611 333.153 288.611 333.153C288.611 333.153 296.461 337.819 311.305 336.121C326.15 334.424 330.606 326.144 330.606 326.144C330.606 326.144 329.544 284.974 324.027 268.633C318.51 252.292 302.176 231.702 302.176 231.702V231.712Z" fill="#FFBE37" stroke="#434A5B" stroke-linecap="round" stroke-linejoin="round"/>
<path d="M257.364 158.595C257.364 158.595 250.1 158.019 247.034 166.249C243.978 174.479 235.374 203.17 237.091 209.484C238.808 215.798 242.638 217.903 244.166 224.792C245.694 231.682 242.251 235.892 242.251 235.892C242.251 235.892 244.93 239.714 251.43 239.912C257.929 240.101 267.684 234.939 274.183 233.41C280.683 231.881 295.022 230.541 304.012 229.2C313.002 227.86 314.908 221.169 314.908 221.169C314.908 221.169 308.785 221.745 308.408 217.913C308.021 214.09 312.992 199.735 310.889 189.787C308.785 179.84 294.446 169.892 288.135 164.919C281.824 159.945 275.9 155.924 269.202 155.736C262.504 155.547 258.495 156.123 257.344 158.605L257.364 158.595Z" fill="#434A5B" stroke="#434A5B" stroke-linecap="round" stroke-linejoin="round"/>
<path d="M254.109 194.553C254.109 194.553 248.374 204.5 249.138 213.296C249.902 222.092 256.59 222.668 257.929 221.526" stroke="#858585" stroke-linecap="round" stroke-linejoin="round"/>
<path d="M290.824 180.019C290.824 180.019 304.588 192.835 306.691 206.416" stroke="#858585" stroke-linecap="round" stroke-linejoin="round"/>
<path d="M270.294 216.503L276.734 234.154C276.734 234.154 290.229 249.87 296.074 247.646C301.918 245.432 296.272 229.707 296.074 227.493C295.875 225.279 294.059 214.388 294.059 214.388C294.059 214.388 290.03 220.841 287.411 220.841C284.791 220.841 270.303 216.503 270.303 216.503H270.294Z" fill="white" stroke="#434A5B" stroke-linecap="round" stroke-linejoin="round"/>
<path d="M265.253 170.121C265.253 170.121 254.734 189.351 254.734 191.981C254.734 194.612 262.831 210.814 265.054 214.051C267.277 217.287 282.658 224.375 286.101 224.574C289.544 224.773 292.978 220.931 293.791 217.893C294.605 214.855 298.028 206.545 297.8 201.929C297.711 200.202 291.479 180.793 289.653 179.78C287.828 178.768 265.253 170.121 265.253 170.121Z" fill="white" stroke="#434A5B" stroke-linecap="round" stroke-linejoin="round"/>
<path d="M272.139 197.005C272.139 197.005 268.279 195.407 266.027 198.871" stroke="#434A5B" stroke-linecap="round" stroke-linejoin="round"/>
<path d="M282.37 193.282C282.37 193.282 283.164 189.162 287.957 190.353" stroke="#434A5B" stroke-linecap="round" stroke-linejoin="round"/>
<path d="M269.738 191.555C269.738 191.555 263.625 191.158 261.76 195.416" stroke="#434A5B" stroke-linecap="round" stroke-linejoin="round"/>
<path d="M277.984 187.693C277.984 187.693 281.308 183.166 285.962 184.764" stroke="#434A5B" stroke-linecap="round" stroke-linejoin="round"/>
<path d="M283.571 202.058C283.571 202.058 281.576 204.987 278.649 204.183" stroke="#434A5B" stroke-linecap="round" stroke-linejoin="round"/>
<path d="M289.286 203.924C289.286 203.924 285.426 209.643 274.789 210.447C274.789 210.447 281.834 215.5 285.962 214.17C290.08 212.839 289.286 203.924 289.286 203.924Z" fill="white" stroke="#434A5B" stroke-linecap="round" stroke-linejoin="round"/>
<path d="M258.574 202.197C258.574 202.197 255.121 200.599 254.585 204.858C254.05 209.117 262.96 210.576 262.96 210.576L258.574 202.197Z" fill="white" stroke="#434A5B" stroke-linecap="round" stroke-linejoin="round"/>
<path d="M292.988 186.859C292.988 186.859 293.027 185.121 294.714 185.558C296.411 185.995 299.249 191.088 298.951 194.126C298.654 197.174 296.639 197.243 296.639 197.243L292.978 186.859H292.988Z" fill="white" stroke="#434A5B" stroke-linecap="round" stroke-linejoin="round"/>
<path d="M266.046 233.946C266.046 233.946 242.479 249.671 241.467 252.491C240.455 255.31 257.582 338.961 257.582 338.961C257.582 338.961 234.819 390.158 240.455 399.023C246.091 407.889 271.683 416.357 272.893 417.965C274.104 419.574 284.374 375.435 288.81 358.707C293.245 341.979 300.499 311.749 300.896 297.433C301.303 283.128 295.458 264.176 293.444 257.931C291.43 251.687 287.808 240.796 287.808 240.796L266.046 233.946Z" fill="#A3A3A3" stroke="#434A5B" stroke-linecap="round" stroke-linejoin="round"/>
<path d="M272.03 223.978C272.03 223.978 288.611 239.992 287.808 240.796C287.004 241.6 277.537 255.707 277.537 255.707L263.03 234.541L272.03 223.969V223.978Z" fill="#A3A3A3" stroke="#434A5B" stroke-linecap="round" stroke-linejoin="round"/>
<path d="M298.882 239.992C298.882 239.992 313.389 257.732 319.432 270.43C325.476 283.127 328.294 305.703 328.294 314.568V331.297C328.294 331.297 334.535 373.618 336.55 380.677C338.564 387.735 341.789 400.83 341.789 400.83C341.789 400.83 344.21 400.026 344.002 391.151C343.803 382.285 340.578 346.208 337.76 331.892C334.942 317.586 333.771 293.859 331.955 289.62L330.139 285.391L351.662 279.137C351.662 279.137 338.237 266.975 333.88 248.351C331.896 239.882 327.49 235.346 324.87 233.529C322.251 231.712 303.109 229.697 299.894 229.905C296.669 230.104 298.882 239.982 298.882 239.982V239.992Z" fill="#A3A3A3" stroke="#434A5B" stroke-linecap="round" stroke-linejoin="round"/>
<path d="M298.882 239.992C298.882 239.992 299.487 237.371 300.698 237.778C301.908 238.185 312.179 244.022 313.191 243.417C314.203 242.811 302.712 228.902 300.499 226.887C298.286 224.872 296.064 223.661 296.064 223.661V227.493L298.882 239.992Z" fill="#A3A3A3" stroke="#434A5B" stroke-linecap="round" stroke-linejoin="round"/>
<path d="M318.43 240.19C318.43 240.19 325.485 262.964 326.289 272.842L318.43 240.19Z" fill="white"/>
<path d="M318.43 240.19C318.43 240.19 325.485 262.964 326.289 272.842" stroke="#434A5B" stroke-linecap="round" stroke-linejoin="round"/>
<path d="M322.449 285.768C322.449 285.768 326.547 269.358 327.53 268.375C328.512 267.392 336.55 263.947 337.205 263.778C337.859 263.61 343.109 267.392 343.932 268.206C344.756 269.03 348.358 271.323 347.703 272.634C347.048 273.944 344.915 272.962 343.764 272.962C342.613 272.962 337.205 276.406 336.877 276.903C336.55 277.399 334.744 281.499 334.089 282.651C333.434 283.803 322.439 285.768 322.439 285.768H322.449Z" fill="white" stroke="#434A5B" stroke-linecap="round" stroke-linejoin="round"/>
<path d="M345.431 269.537C345.431 269.537 343.268 268.673 342.623 269C341.978 269.328 334.317 272.892 333.88 273.428C333.444 273.964 332.908 274.828 332.908 274.828" stroke="#434A5B" stroke-linecap="round" stroke-linejoin="round"/>
<path d="M330.864 272.346C330.864 272.346 332.154 270.619 333.454 269.864C334.754 269.11 339.278 267.382 339.824 267.164C340.36 266.945 342.414 267.164 342.414 267.164" stroke="#434A5B" stroke-linecap="round" stroke-linejoin="round"/>
<path d="M339.07 265.218C339.07 265.218 330.437 268.345 329.901 269.11L329.365 269.864" stroke="#434A5B" stroke-linecap="round" stroke-linejoin="round"/>
<path d="M330.715 283.118C330.715 283.118 338.971 277.27 342.603 275.662C346.235 274.054 353.687 277.072 355.096 278.888C356.505 280.705 358.321 289.372 358.122 295.815C357.924 302.268 357.715 305.088 353.29 306.497C348.854 307.907 342.811 308.711 342.206 308.92C341.6 309.118 340.995 296.828 337.165 290.176C333.335 283.525 330.715 283.118 330.715 283.118Z" fill="#A3A3A3" stroke="#434A5B" stroke-linecap="round" stroke-linejoin="round"/>
<path d="M320.236 287.148C320.236 287.148 322.251 310.121 323.858 312.95C325.466 315.77 329.494 315.164 333.732 314.161C337.969 313.159 344.21 311.739 344.409 310.329C344.607 308.92 344.409 295.418 342.196 289.769C339.983 284.13 336.153 280.09 333.126 280.904C330.1 281.708 320.236 283.723 320.236 287.148Z" fill="#A3A3A3" stroke="#434A5B" stroke-linecap="round" stroke-linejoin="round"/>
<path d="M301.611 324.993L326.22 303.817L315.89 296.927L296.203 305.624C296.203 305.624 301.452 319.572 301.621 324.993H301.611Z" fill="white" stroke="#434A5B" stroke-linecap="round" stroke-linejoin="round"/>
<path d="M289.643 336.648C289.643 336.648 292.263 336.648 295.875 333.689C299.487 330.731 302.762 328.765 301.779 320.396C300.797 312.027 296.699 299.22 294.724 297.582C292.759 295.944 280.127 297.91 279.8 298.734C279.472 299.558 289.802 314.489 290.626 323.186C291.449 331.882 289.643 336.648 289.643 336.648Z" fill="#A3A3A3" stroke="#434A5B" stroke-linecap="round" stroke-linejoin="round"/>
<path d="M246.329 252.947C246.329 252.947 244.484 249.403 241.467 252.491C238.451 255.578 236.813 264.275 238.947 274.778C241.08 285.282 246.984 329.261 249.277 334.682C251.569 340.103 253.702 345.185 257.81 345.354C261.909 345.523 275.364 343.716 284.553 340.102C293.742 336.489 293.246 325.658 290.13 316.306C287.014 306.954 281.268 299.24 277.825 296.937C274.382 294.644 272.576 291.685 268.964 284.954C265.352 278.223 257.155 261.158 254.853 258.696" fill="#A3A3A3"/>
<path d="M246.329 252.947C246.329 252.947 244.484 249.403 241.467 252.491C238.451 255.578 236.813 264.275 238.947 274.778C241.08 285.282 246.984 329.261 249.277 334.682C251.569 340.103 253.702 345.185 257.81 345.354C261.909 345.523 275.364 343.716 284.553 340.102C293.742 336.489 293.246 325.658 290.13 316.306C287.014 306.954 281.268 299.24 277.825 296.937C274.382 294.644 272.576 291.685 268.964 284.954C265.352 278.223 257.155 261.158 254.853 258.696" stroke="#434A5B" stroke-linecap="round" stroke-linejoin="round"/>
<path d="M262.355 314.241C261.532 314.995 260.678 315.68 259.805 316.246" stroke="#434A5B" stroke-linecap="round" stroke-linejoin="round"/>
<path d="M272.467 300.084C272.467 300.084 269.162 306.855 264.479 312.087" stroke="#434A5B" stroke-linecap="round" stroke-linejoin="round"/>
<path d="M324.741 289.71C324.741 289.71 300.628 292.003 294.397 291.844C288.165 291.675 279.304 288.399 279.304 288.399C279.304 288.399 268.636 283.971 266.344 282.82C264.052 281.668 258.634 281.668 257.155 282.323C255.677 282.979 252.402 285.609 252.889 287.247C253.385 288.885 255.349 287.744 256.332 286.92C257.314 286.096 258.951 285.441 258.951 285.441L264.201 286.592L265.183 287.903C265.183 287.903 257.969 289.213 256.977 289.71C255.994 290.206 253.206 296.44 252.71 297.751C252.214 299.061 252.71 298.903 253.692 298.903H254.675C254.675 298.903 254.179 301.533 255.171 301.861C256.163 302.189 257.463 301.533 257.463 301.533C257.463 301.533 258.614 302.685 259.1 302.685C259.587 302.685 264.677 299.895 265.501 299.399C266.324 298.903 273.38 300.382 275.176 300.382C276.972 300.382 283.868 300.213 283.868 300.213C283.868 300.213 317.001 309.734 321.437 310.389C325.863 311.044 328.82 310.885 330.457 305.961C332.094 301.037 328.492 290.375 324.711 289.71H324.741Z" fill="white" stroke="#434A5B" stroke-linecap="round" stroke-linejoin="round"/>
<path d="M257.483 301.523C257.483 301.523 261.909 296.599 263.06 295.944C264.211 295.289 266.503 294.465 266.503 294.465" stroke="#434A5B" stroke-linecap="round" stroke-linejoin="round"/>
<path d="M254.695 298.893L259.289 293.482L264.211 291.516" stroke="#434A5B" stroke-linecap="round" stroke-linejoin="round"/>
<path d="M137.275 157.503C137.275 157.503 138.625 158.307 140.778 159.121C142.931 159.935 148.32 161.811 150.751 164.512C153.172 167.212 152.368 173.675 152.368 173.675" stroke="#434A5B" stroke-linecap="round" stroke-linejoin="round"/>
<path d="M106.514 179.929L104.41 184.456" stroke="#434A5B" stroke-linecap="round" stroke-linejoin="round"/>
<path d="M89.5057 165.693C89.5057 165.693 88.0371 172.632 86.5487 174.231C85.0602 175.819 82.7085 177.705 83.4924 181.17C84.2763 184.645 88.8508 186.809 88.831 187.395C88.8211 187.971 80.5353 189.569 80.7636 192.17C80.9918 194.771 83.2245 197.958 83.2245 197.958C83.2245 197.958 77.102 199.983 76.586 203.458C76.07 206.933 78.1538 210.397 78.124 211.708C78.0943 213.008 74.4029 215.907 75.5043 218.22C76.6058 220.533 79.2156 220.246 79.3446 220.682C79.4835 221.119 77.8462 222.995 77.8164 224.157C77.7866 225.319 78.6301 226.331 78.6301 226.331H127.501L113.639 154.008L95.2512 161.096L89.4958 165.723L89.5057 165.693Z" fill="#FFBE37" stroke="#434A5B" stroke-linecap="round" stroke-linejoin="round"/>
<path d="M155.712 329.837C155.712 329.837 165.794 352.79 167.114 358.419C168.434 364.048 169.069 389.125 166.965 398.894C163.145 416.675 152.19 433.532 152.19 433.532H96.6801L85.2289 380.051L101.949 327.951L155.712 329.827V329.837Z" fill="white" stroke="#434A5B" stroke-linecap="round" stroke-linejoin="round"/>
<path d="M146.504 374.065L141.83 386.167L144.053 433.274" stroke="#434A5B" stroke-linecap="round" stroke-linejoin="round"/>
<path d="M154.829 314.608C154.829 314.608 164.633 322.957 165.814 326.085C166.985 329.212 167.739 349.871 168.275 353.415C168.811 356.96 166.439 360.305 166.439 360.305L157.985 339.229C157.985 339.229 157.171 329.837 156.972 329.212C156.784 328.586 155.236 323.583 155.236 323.583L154.829 314.608Z" fill="white" stroke="#434A5B" stroke-linecap="round" stroke-linejoin="round"/>
<path d="M162.906 333.798C162.906 333.798 163.026 337.551 163.373 340.271C163.72 342.981 164.851 347.995 162.529 349.246" fill="white"/>
<path d="M162.906 333.798C162.906 333.798 163.026 337.551 163.373 340.271C163.72 342.981 164.851 347.995 162.529 349.246" stroke="#434A5B" stroke-linecap="round" stroke-linejoin="round"/>
<path d="M119.235 225.726L132.572 226.143L142.108 226.46L153.192 235.743C153.192 235.743 162.5 282.065 163.264 284.984C164.028 287.903 155.365 309.813 154.69 311.898C154.015 313.983 155.712 329.837 155.712 329.837C155.712 329.837 151.445 333.798 137.632 335.675C123.82 337.551 107.903 331.714 107.903 331.714C107.903 331.714 118.372 304.174 120.605 289.362C120.605 289.362 122.549 260.78 121.914 252.64C121.279 244.499 119.235 225.726 119.235 225.726Z" fill="#FFBE37" stroke="#434A5B" stroke-linecap="round" stroke-linejoin="round"/>
<path d="M152.507 294.276L130.915 305.236" stroke="#434A5B" stroke-linecap="round" stroke-linejoin="round"/>
<path d="M151.247 298.039L141.235 303.042" stroke="#434A5B" stroke-linecap="round" stroke-linejoin="round"/>
<path d="M115.583 210.387C115.583 210.387 123.601 238.175 124.643 243.089C125.685 248.003 135.955 253.791 142.247 250.614C148.538 247.428 146.524 241.352 145.452 237.599C144.39 233.837 142.108 226.46 142.108 226.46L144.539 203.895C144.539 203.895 136.918 214.021 134.14 215.182C131.361 216.344 115.583 210.397 115.583 210.397V210.387Z" fill="white" stroke="#434A5B" stroke-linecap="round" stroke-linejoin="round"/>
<path d="M130.587 217.694L141.106 227.84L143.686 206.069L130.587 217.694Z" fill="#434A5B" stroke="#434A5B" stroke-linecap="round" stroke-linejoin="round"/>
<path d="M141.473 226.738L140.917 236.696" stroke="#434A5B" stroke-linecap="round" stroke-linejoin="round"/>
<path d="M142.177 224.157C142.177 224.157 157.032 266.618 158.679 276.218C160.326 285.818 160.694 287.903 160.813 291.238C160.942 294.574 158.262 301.881 158.262 301.881C158.262 301.881 168.791 288.945 168.86 277.677C168.93 266.409 161.279 232.377 157.707 230.312C143.517 222.112 142.177 224.157 142.177 224.157Z" fill="#434A5B" stroke="#434A5B" stroke-linecap="round" stroke-linejoin="round"/>
<path d="M155.97 245.114C155.97 245.114 162.49 264.146 161.448 278.432" stroke="#A3A3A3" stroke-linecap="round" stroke-linejoin="round"/>
<path d="M105.561 177.13L112.299 167.579L143.487 199.258C143.487 199.258 141.592 217.774 141.582 218.349C141.572 218.925 143.517 222.112 143.517 222.112C143.517 222.112 144.37 222.837 145.065 223.849C145.759 224.862 145.045 224.862 144.856 226.311C144.678 227.761 145.67 228.486 146.375 229.2C147.079 229.925 148.796 230.65 149.798 231.226C150.8 231.801 149.897 233.102 149.143 234.412C148.389 235.713 147.317 238.175 148.558 240.776C149.798 243.377 150.532 242.95 152.646 244.975C154.77 247.001 151.683 248.877 151.683 248.877C151.683 248.877 153.281 248.44 154.601 248.013C155.911 247.576 156.526 246.137 155.97 245.124C155.415 244.112 154.343 240.786 154.789 240.21C155.236 239.634 159.334 237.609 160.535 236.011C161.726 234.422 160.436 234.134 161.458 233.549C162.48 232.973 164.544 231.672 165.02 229.647C165.506 227.622 163.105 225.16 163.849 224.435C164.593 223.71 167.372 219.253 167.402 217.952C167.431 216.652 165.784 214.448 165.784 214.448C165.784 214.448 166.856 213.584 167.54 209.385C168.225 205.185 164.931 203.885 164.693 201.572C164.464 199.258 167.858 196.072 167.918 187.971C167.967 179.87 154.581 177.408 154.174 176.395C153.767 175.382 154.234 173.794 154.005 171.62C153.767 169.446 148.508 165.693 148.508 165.693C148.508 165.693 149.143 163.519 149.61 162.079C150.076 160.63 149.391 159.329 146.841 157.016C144.291 154.703 131.976 143.852 126.806 142.69C121.627 141.529 112.964 147.178 111.932 147.754C110.91 148.329 102.713 146.304 100.203 148.329C97.6923 150.355 96.8885 153.829 96.2733 155.269C95.658 156.708 93.4948 156.718 92.1552 158.158C90.8156 159.607 88.6325 172.186 88.6325 172.186" fill="#FFBE37"/>
<path d="M105.561 177.13L112.299 167.579L143.487 199.258C143.487 199.258 141.592 217.774 141.582 218.349C141.572 218.925 143.517 222.112 143.517 222.112C143.517 222.112 144.37 222.837 145.065 223.849C145.759 224.862 145.045 224.862 144.856 226.311C144.678 227.761 145.67 228.486 146.375 229.2C147.079 229.925 148.796 230.65 149.798 231.226C150.8 231.801 149.897 233.102 149.143 234.412C148.389 235.713 147.317 238.175 148.558 240.776C149.798 243.377 150.532 242.95 152.646 244.975C154.77 247.001 151.683 248.877 151.683 248.877C151.683 248.877 153.281 248.44 154.601 248.013C155.911 247.576 156.526 246.137 155.97 245.124C155.415 244.112 154.343 240.786 154.789 240.21C155.236 239.634 159.334 237.609 160.535 236.011C161.726 234.422 160.436 234.134 161.458 233.549C162.48 232.973 164.544 231.672 165.02 229.647C165.506 227.622 163.105 225.16 163.849 224.435C164.593 223.71 167.372 219.253 167.402 217.952C167.431 216.652 165.784 214.448 165.784 214.448C165.784 214.448 166.856 213.584 167.54 209.385C168.225 205.185 164.931 203.885 164.693 201.572C164.464 199.258 167.858 196.072 167.918 187.971C167.967 179.87 154.581 177.408 154.174 176.395C153.767 175.382 154.234 173.794 154.005 171.62C153.767 169.446 148.508 165.693 148.508 165.693C148.508 165.693 149.143 163.519 149.61 162.079C150.076 160.63 149.391 159.329 146.841 157.016C144.291 154.703 131.976 143.852 126.806 142.69C121.627 141.529 112.964 147.178 111.932 147.754C110.91 148.329 102.713 146.304 100.203 148.329C97.6923 150.355 96.8885 153.829 96.2733 155.269C95.658 156.708 93.4948 156.718 92.1552 158.158C90.8156 159.607 88.6325 172.186 88.6325 172.186" stroke="#434A5B" stroke-linecap="round" stroke-linejoin="round"/>
<path d="M118.402 221.03C118.402 221.03 133.495 274.133 134.169 281.013C134.844 287.893 111.217 332.964 106.405 342.356C101.592 351.748 91.0934 380.329 89.3966 390.138C87.6998 399.946 86.3701 411.631 86.3701 411.631C86.3701 411.631 73.7976 405.585 65.5813 400.363C57.3651 395.141 55.9758 392.223 56.6308 391.18C57.2857 390.138 60.719 377.202 60.719 377.202C60.719 377.202 53.6141 369.27 54.0508 368.436C54.4874 367.602 70.6421 312.106 70.6421 312.106C70.6421 312.106 74.8891 222.807 76.5661 222.807C78.2431 222.807 118.412 221.03 118.412 221.03H118.402Z" fill="#434A5B" stroke="#434A5B" stroke-linecap="round" stroke-linejoin="round"/>
<path d="M116.873 246.385L134.159 281.013" stroke="#A3A3A3" stroke-linecap="round" stroke-linejoin="round"/>
<path d="M86.5487 223.422C86.5487 223.422 74.0953 220.921 71.9321 224.256C69.7688 227.592 50.667 284.14 49.4961 289.352C48.3252 294.564 84.0977 333.163 84.0977 333.163L102.545 320.853L80.7636 290.186L92.6712 246.375" fill="#434A5B"/>
<path d="M86.5487 223.422C86.5487 223.422 74.0953 220.921 71.9321 224.256C69.7688 227.592 50.667 284.14 49.4961 289.352C48.3252 294.564 84.0977 333.163 84.0977 333.163L102.545 320.853L80.7636 290.186L92.6712 246.375" stroke="#434A5B" stroke-linecap="round" stroke-linejoin="round"/>
<path d="M89.5355 259.996L80.6445 287.486L100.54 317.318" stroke="#A3A3A3" stroke-linecap="round" stroke-linejoin="round"/>
<path d="M91.9667 251.369L90.6866 255.439" stroke="#A3A3A3" stroke-linecap="round" stroke-linejoin="round"/>
<path d="M100.54 317.318L80.5254 334.007L87.2135 342.147L108.26 325.866L100.54 317.318Z" fill="white" stroke="#434A5B" stroke-linecap="round" stroke-linejoin="round"/>
<path d="M106.772 326.71C106.772 326.71 123.423 345.066 125.288 345.91C127.144 346.744 130.805 350.705 131.798 352.591C132.79 354.468 134.189 356.97 135.628 358.012C137.067 359.054 137.245 360.305 134.725 360.931C132.205 361.556 129.912 361.765 128.523 358.846C127.134 355.927 124.901 353.217 124.901 353.217L110.672 363.859C110.672 363.859 107.605 352.591 107.248 350.298C106.891 348.005 106.147 344.252 106.147 344.252L96.571 335.069L106.782 326.72L106.772 326.71Z" fill="white" stroke="#434A5B" stroke-linecap="round" stroke-linejoin="round"/>
<path d="M83.4428 208.223C83.4428 208.223 82.0635 217.476 82.8474 220.662C83.6809 224.028 90.4584 223.432 89.0691 227.9C88.6226 229.339 86.8662 230.878 87.4219 232.516C87.9875 234.194 90.1904 234.293 91.411 235.236C93.6635 236.984 92.8597 238.86 93.6238 241.342C94.1795 243.129 96.0847 243.754 96.6007 245.174C97.216 246.852 96.0351 247.904 97.9006 249.731C101.145 252.917 103.596 253.493 104.033 253.205C104.47 252.917 103.626 252.193 105.67 251.18C107.715 250.167 111.664 248.291 110.989 246.693C110.314 245.124 109.64 243.556 109.63 243.526C110.582 245.72 113.549 243.506 114.353 242.344C116.199 239.704 113.371 236.864 113.708 234.005C114.075 230.848 117.628 229.22 118.025 226.033C118.412 222.916 115.177 220.762 115.881 217.903C116.199 216.602 116.377 215.153 116.377 215.153C116.377 215.153 115.435 212.264 114.016 211.251C112.597 210.238 112.11 206.188 112.001 204.738" fill="#FFBE37"/>
<path d="M83.4428 208.223C83.4428 208.223 82.0635 217.476 82.8474 220.662C83.6809 224.028 90.4584 223.432 89.0691 227.9C88.6226 229.339 86.8662 230.878 87.4219 232.516C87.9875 234.194 90.1904 234.293 91.411 235.236C93.6635 236.984 92.8597 238.86 93.6238 241.342C94.1795 243.129 96.0847 243.754 96.6007 245.174C97.216 246.852 96.0351 247.904 97.9006 249.731C101.145 252.917 103.596 253.493 104.033 253.205C104.47 252.917 103.626 252.193 105.67 251.18C107.715 250.167 111.664 248.291 110.989 246.693C110.314 245.124 109.64 243.556 109.63 243.526C110.582 245.72 113.549 243.506 114.353 242.344C116.199 239.704 113.371 236.864 113.708 234.005C114.075 230.848 117.628 229.22 118.025 226.033C118.412 222.916 115.177 220.762 115.881 217.903C116.199 216.602 116.377 215.153 116.377 215.153C116.377 215.153 115.435 212.264 114.016 211.251C112.597 210.238 112.11 206.188 112.001 204.738" stroke="#434A5B" stroke-linecap="round" stroke-linejoin="round"/>
<path d="M109.451 162.357C109.451 162.357 97.7617 179.363 98.6548 182.957C99.5479 186.551 108.469 209.613 111.515 211.896C114.561 214.19 126.856 219.58 130.934 219.749C135.013 219.908 138 218.28 139.696 215.5C141.393 212.72 147.883 201.442 147.943 198.99C148.002 196.538 142.773 173 141.8 172.672C140.828 172.344 109.451 162.367 109.451 162.367V162.357Z" fill="white" stroke="black" stroke-linecap="round" stroke-linejoin="round"/>
<path d="M127.313 180.426C127.313 180.426 126.975 184.962 127.392 186.442C127.809 187.921 131.649 193.252 131.738 194.156C131.827 195.059 130.329 195.972 128.275 196.766" stroke="#434A5B" stroke-linecap="round" stroke-linejoin="round"/>
<path d="M100.937 189.996C100.937 189.996 98.377 187.703 97.0076 190.482C95.6283 193.262 96.69 197.025 101.026 200.132C105.363 203.239 106.345 203.239 106.345 203.239L100.947 189.996H100.937Z" fill="white" stroke="#434A5B" stroke-linecap="round" stroke-linejoin="round"/>
<path d="M143.705 178.549C143.705 178.549 146.017 177.408 147.089 180.346C148.161 183.285 146.504 190.81 146.504 190.81L143.695 178.549H143.705Z" fill="white" stroke="#434A5B" stroke-linecap="round" stroke-linejoin="round"/>
<path d="M121.537 202.703C121.537 202.703 129.089 202.127 130.934 201.214C132.78 200.301 136.005 196.578 136.005 196.578C136.005 196.578 136.005 204.758 132.016 206.168C129.218 207.151 121.537 202.703 121.537 202.703Z" fill="white" stroke="#434A5B" stroke-linecap="round" stroke-linejoin="round"/>
<path d="M109.173 184.853C109.173 184.853 109.729 180.545 117.231 179.75L109.173 184.853Z" fill="white"/>
<path d="M109.173 184.853C109.173 184.853 109.729 180.545 117.231 179.75" stroke="#434A5B" stroke-linecap="round" stroke-linejoin="round"/>
<path d="M127.203 176.713C127.203 176.713 131.808 172.712 136.799 177.586L127.203 176.713Z" fill="white"/>
<path d="M127.203 176.713C127.203 176.713 131.808 172.712 136.799 177.586" stroke="#434A5B" stroke-linecap="round" stroke-linejoin="round"/>
<path d="M118.481 187.047C118.878 188.378 118.451 189.698 117.528 189.986C116.606 190.284 115.544 189.44 115.147 188.11C114.75 186.779 115.177 185.459 116.099 185.171C117.022 184.873 118.084 185.717 118.481 187.047Z" fill="#434A5B"/>
<path d="M133.911 182.769C134.308 184.099 133.882 185.419 132.959 185.707C132.036 186.005 130.974 185.161 130.577 183.831C130.18 182.5 130.607 181.18 131.53 180.892C132.453 180.594 133.514 181.438 133.911 182.769Z" fill="#434A5B"/>
<path d="M452.471 433.532H8.15674" stroke="#434A5B" stroke-linecap="round" stroke-linejoin="round"/>
<path d="M476.068 433.532H459.546" stroke="#434A5B" stroke-linecap="round" stroke-linejoin="round"/>
</g>
<defs>
<clipPath id="clip0_578_771">
<rect width="477.288" height="453" fill="white"/>
</clipPath>
</defs>
</svg>
